<?xml version="1.0" encoding="UTF-8"?>
<svg id="Layer_1" xmlns="http://www.w3.org/2000/svg" viewBox="0 0 46.53 32.1">
  <defs>
    <style>
      .cls-1 {
        fill: #414042;
      }
    </style>
  </defs>
  <path class="cls-1" d="M17.79,11.21l-.19-.88-.45,2.07c-.09.41-.21.82-.37,1.22,0,0,0,0,0,0-.28.73-.48,1.59-.48,2.1,0,1.2,1.05,2.17,2.34,2.17s1.86-.97,1.86-2.17c0-.51-.2-1.38-.48-2.1-.1-.27-.34-.86-.75-1.29-.56-.58-.32-1.36-.16-2.13h0s8.83,6.88,8.83,6.88h2.27l-9.99-7.78-2.44,1.9ZM19.03,13.53c.29.55.63,1.63.63,2.2,0,.52-.46.95-1.02.95s-1.02-.43-1.02-.95c0-.57.34-1.65.63-2.2.16-.3.63-.3.79,0M16.79,4.28c.16.4.28.81.37,1.23l1.01,4.7,1.98-1.54.17-.13L30.22.81h-2.27l-8.83,6.88c-.16-.76-.4-1.55.16-2.13.42-.43.65-1.03.75-1.29.28-.73.48-1.59.48-2.1,0-1.2-.58-2.17-1.86-2.17s-2.34.97-2.34,2.17c0,.51.2,1.38.48,2.1h0ZM18.64,1.22c.56,0,1.02.43,1.02.95,0,.57-.34,1.65-.63,2.2-.16.3-.63.3-.79,0-.29-.55-.63-1.63-.63-2.2,0-.52.46-.95,1.02-.95"/>
  <g>
    <path class="cls-1" d="M34.31,23.81c0-.18-.15-.33-.33-.33s-.33.15-.33.33.15.33.33.33.33-.15.33-.33M36.58,24.61l-1.61,2.66c-.12.19-.32.3-.54.3-.06,0-.12,0-.17-.02-.28-.08-.46-.32-.46-.61v-2.33h.37v2.33c0,.15.1.23.19.26.09.03.22,0,.3-.12l1.5-2.47h.43Z"/>
    <path class="cls-1" d="M46.1,24.61l-1.42,2.31v-2.06l-.12-.05c-.54-.21-1.7-.36-2.27.61-.51.86-.06,1.71.34,2.15h.47l1.21-1.95v1.95h.4l1.82-2.96h-.43ZM42.85,27.27c-.25-.3-.67-.96-.25-1.66.28-.47.72-.59,1.1-.59.2,0,.38.03.51.07l-1.36,2.18Z"/>
    <path class="cls-1" d="M41.21,24.61c-.37.49-.9,1.2-1.34,1.79v-1.79h-.39l-1.29,2.37c-.09.14-.22.12-.26.11-.09-.02-.19-.1-.19-.25v-2.23h-.37v2.23c0,.28.18.52.46.59.27.07.53-.04.68-.28l.99-1.82v1.56c-.47.63-.88,1.17-1,1.33-.21.28-.28.61-.18.89.07.21.23.36.44.42.1.03.19.04.29.04.19,0,.36-.05.5-.15.14-.1.32-.31.32-.71v-1.7c.58-.78,1.38-1.84,1.79-2.39h-.45ZM39.51,28.7c0,.2-.06.35-.17.43-.14.1-.33.09-.47.05-.12-.03-.17-.14-.19-.19-.05-.13-.04-.35.13-.57.09-.12.36-.48.7-.93v1.21Z"/>
    <path class="cls-1" d="M27.93,24.61l-1.33,2.16v-2.16h-.4l-1.5,2.47c-.08.13-.2.14-.3.12-.09-.03-.19-.11-.19-.26v-2.33h-.37v2.33c0,.29.19.53.46.61.28.08.56-.03.71-.28l1.22-2v2.15h.4l1.73-2.81h-.43Z"/>
    <path class="cls-1" d="M22.62,24.61l-1.39,2.28v-1.67c0-.29-.19-.53-.46-.61-.27-.08-.56.03-.71.28l-1.22,2v-1.58c0-.29-.19-.53-.46-.61-.28-.08-.56.03-.71.28l-.19.32.31.19.19-.32c.08-.13.2-.14.3-.12.09.03.19.11.19.26v2.27h.38l1.52-2.49c.08-.13.2-.14.3-.12.09.03.19.11.19.26v2.36h.38l1.8-2.96h-.43Z"/>
    <path class="cls-1" d="M16.66,24.61l-1.42,2.31v-2.06l-.12-.05c-.54-.21-1.7-.36-2.27.61-.51.86-.06,1.71.33,2.15h.47l1.21-1.95v1.95h.4l1.82-2.96h-.43ZM13.41,27.27c-.25-.3-.67-.96-.25-1.66.28-.47.72-.59,1.1-.59.2,0,.38.03.51.07l-1.36,2.18Z"/>
    <path class="cls-1" d="M8.53,24.61l-1.42,2.31v-2.06l-.12-.05c-.54-.21-1.7-.36-2.27.61-.51.86-.06,1.71.33,2.15h.47l1.21-1.95v1.95h.4l1.82-2.96h-.43ZM5.28,27.27c-.25-.3-.67-.96-.25-1.66.28-.47.72-.59,1.1-.59.2,0,.38.03.51.07l-1.36,2.18Z"/>
    <polygon class="cls-1" points="4.09 22.49 3.54 22.49 .37 25.36 .37 22.49 0 22.49 0 27.49 .37 27.49 .37 25.86 1.23 25.08 2.87 27.49 3.31 27.49 1.51 24.83 4.09 22.49"/>
    <path class="cls-1" d="M10.12,24.55v-1.08h-.37v3.37c0,.36.18.63.47.71.06.02.11.02.17.02.25,0,.51-.15.67-.41.32-.51.65-1,.66-1h-.44c-.13.19-.33.5-.52.81-.13.21-.31.27-.43.23-.13-.04-.2-.17-.2-.36v-1.92h1.7v-.37h-1.7Z"/>
    <path class="cls-1" d="M31.83,26.87c-.14.21-.31.33-.5.33-.17,0-.33-.08-.45-.23-.09-.12-.25-.33-.44-.57.81-.16,1.04-.23,1.27-.45.15-.15.23-.39.2-.64-.03-.26-.17-.48-.39-.62-.37-.23-.82-.14-1.21.26-.11.11-.37.4-.53.59-.08-.11-.16-.2-.21-.27.23-.29.85-1.07,1.07-1.36.19-.25.25-.59.17-.89-.07-.26-.24-.46-.47-.55-.27-.11-.56-.08-.8.09-.24.16-.39.42-.39.7v4.19h.37v-1.63c.35.45.88,1.14,1.08,1.4.18.24.44.37.72.37.01,0,.02,0,.03,0,.31-.01.59-.19.79-.5.37-.56.72-1.13.73-1.14h-.43c-.14.21-.37.58-.6.94M29.52,23.25c0-.15.09-.3.22-.39.09-.06.18-.09.28-.09.06,0,.12.01.18.04.16.07.23.21.26.31.05.19,0,.42-.11.57-.16.21-.55.7-.83,1.06v-1.49ZM30,25.83c.15-.18.44-.51.56-.62.16-.16.46-.39.76-.21.17.11.21.25.23.35.02.15-.04.28-.09.34-.15.15-.32.2-1.26.38-.06-.08-.13-.17-.19-.25"/>
  </g>
  <g>
    <path class="cls-1" d="M24.22,30.07c.16.02.35.19.42.34.07.16.07.32,0,.48-.01.03-.09.14-.07.16,0,0,.03,0,.05.02.32.28.27.82-.13.98-.02,0-.14.05-.15.05h-1.24v-2.03h1.12ZM23.39,30.93h.8s.08-.04.09-.05c.14-.1.14-.35,0-.46-.01,0-.08-.05-.09-.05h-.8v.56ZM23.39,31.8h.92s.08-.03.1-.04c.05-.03.08-.09.1-.14.03-.08.03-.14,0-.22-.01-.04-.08-.11-.11-.13-.01,0-.1-.05-.11-.05h-.9v.58Z"/>
    <path class="cls-1" d="M17.2,32.1v-2.03h.88s.13.03.15.04c.89.29.93,1.56.07,1.91-.05.02-.23.08-.26.08h-.84ZM17.5,31.8h.55s.13-.04.15-.05c.36-.15.54-.56.41-.92-.05-.13-.2-.3-.32-.37-.03-.01-.18-.08-.2-.08h-.59v1.43Z"/>
    <path class="cls-1" d="M27.9,32.1h-.34s-.02-.07-.04-.09c-.05-.09-.1-.18-.15-.27h-1.19s-.12.21-.15.25c-.02.03-.04.11-.04.11h-.34l1.13-2.06,1.11,2.06ZM27.2,31.44l-.43-.79-.43.79h.85Z"/>
    <path class="cls-1" d="M20.32,30.07v1.26s.06.16.08.2c.23.4.86.35,1.02-.09.01-.03.05-.15.05-.17v-1.2h.28v1.32s-.04.13-.05.15c-.27.68-1.2.75-1.56.11-.04-.06-.12-.26-.12-.32v-1.26h.3Z"/>
    <rect class="cls-1" x="29.05" y="30.07" width=".28" height="2.03"/>
  </g>
</svg>