<?xml version="1.0" encoding="UTF-8"?>
<svg id="Layer_1" xmlns="http://www.w3.org/2000/svg" viewBox="0 0 28.71 32.09">
  <defs>
    <style>
      .cls-1 {
        fill: #231f20;
      }
    </style>
  </defs>
  <path class="cls-1" d="M5.28,29.53c-.26.12-.55.21-.87.29-.32.08-.61.11-.87.11-.71,0-1.33-.14-1.87-.41-.54-.28-.95-.66-1.24-1.14-.29-.49-.44-1.04-.44-1.67,0-.78.15-1.44.46-1.98.31-.54.72-.95,1.24-1.22.52-.27,1.1-.4,1.73-.4.41,0,.79.05,1.14.14.36.09.67.21.94.35l-.43,1.23c-.18-.1-.42-.19-.72-.27-.31-.08-.56-.12-.77-.12-.73,0-1.28.18-1.67.54s-.58.9-.58,1.62c0,.41.09.77.28,1.08s.45.54.79.7c.34.16.72.25,1.15.25s.72-.06.92-.17v-.81h-1.15v-1.27h2.49v2.82c-.1.11-.29.22-.55.34ZM7.04,24.02c.14-.12.3-.19.49-.19s.33.06.47.19c.14.12.21.28.21.46s-.07.33-.21.45c-.14.12-.3.18-.47.18s-.34-.06-.49-.18c-.14-.12-.21-.27-.21-.45s.07-.33.21-.46ZM8.13,25.89v3.97h-1.27v-3.97h1.27ZM10.32,22.69v7.17h-1.27v-7.17h1.27ZM15.66,22.69v7.17h-1.27v-.42c-.46.35-.95.53-1.47.53-.37,0-.7-.09-.99-.26s-.52-.43-.69-.75c-.17-.33-.25-.71-.25-1.15s.09-.81.27-1.13c.18-.32.43-.56.74-.73.31-.17.68-.25,1.08-.25.26,0,.51.04.74.12s.42.2.58.36v-3.48h1.26ZM13.97,28.75c.17-.1.31-.25.42-.45v-.97c-.07-.19-.2-.35-.39-.46-.19-.11-.41-.17-.66-.17-.28,0-.53.1-.74.31-.21.21-.31.47-.31.78,0,.21.05.4.15.57.1.17.23.31.39.4.16.1.33.15.52.15.25,0,.47-.05.64-.15ZM20.2,28.55h-2.22l-.54,1.31h-1.3l3.02-6.95h.07l3.02,6.95h-1.53l-.52-1.31ZM19.76,27.44l-.64-1.63-.67,1.63h1.32ZM24.4,26.23c.19-.17.39-.3.59-.4.2-.09.36-.14.47-.14l-.06,1.27s-.09,0-.15,0c-.25,0-.48.07-.67.2-.19.13-.34.3-.44.51-.1.21-.15.42-.15.64v1.55h-1.26v-3.97h1.14l.1.91c.11-.21.26-.4.45-.57ZM27.75,24.15v1.73h.96v.99h-.96v3h-1.27v-3h-.62v-.99h.62v-1.73h1.27ZM3.1,31.47h0c0-.35.26-.63.63-.63.23,0,.36.08.48.19l-.17.19c-.09-.08-.19-.14-.31-.14-.2,0-.35.17-.35.38h0c0,.21.14.38.35.38.14,0,.22-.06.32-.14l.17.17c-.12.13-.26.22-.49.22-.36,0-.62-.27-.62-.62ZM5.84,30.87h.27v.48h.49v-.48h.27v1.21h-.27v-.48h-.49v.48h-.27v-1.21ZM8.52,31.47h0c0-.35.27-.63.64-.63s.64.28.64.62h0c0,.35-.27.63-.64.63s-.64-.28-.64-.62ZM9.53,31.47h0c0-.21-.15-.38-.37-.38s-.36.17-.36.38h0c0,.21.15.38.37.38s.36-.17.36-.38ZM11.4,31.47h0c0-.35.26-.63.63-.63.23,0,.36.08.48.19l-.17.19c-.09-.08-.19-.14-.31-.14-.2,0-.35.17-.35.38h0c0,.21.14.38.35.38.14,0,.22-.06.32-.14l.17.17c-.12.13-.26.22-.49.22-.36,0-.62-.27-.62-.62ZM14.06,31.47h0c0-.35.27-.63.64-.63s.64.28.64.62h0c0,.35-.27.63-.64.63s-.64-.28-.64-.62ZM15.06,31.47h0c0-.21-.15-.38-.37-.38s-.36.17-.36.38h0c0,.21.15.38.37.38s.36-.17.36-.38ZM17,30.87h.27v.97h.6v.24h-.87v-1.21ZM19.94,30.86h.24l.52,1.22h-.28l-.11-.27h-.51l-.11.27h-.27l.52-1.22ZM20.21,31.57l-.16-.39-.16.39h.32ZM22.45,31.11h-.37v-.24h1v.24h-.37v.96h-.27v-.96ZM24.69,30.87h.91v.24h-.65v.24h.57v.24h-.57v.25h.66v.24h-.92v-1.21ZM1.53,18.03v.15l5.06.05h4.66c.09-.09.3-.05.43-.05s.33-.04.43.05h9.62c.04-.09.19-.05.28-.05.48,0,.97,0,1.45,0,.13,0,.33-.04.43.05h.25l.03-.04c.06-.02.14-.03.17.04h.3l.02-.04.03.04h.05c.03-.07.12-.07.15,0h1l.03-.04.03.04h1.25v-.2H1.53ZM24.55,16.13l-.13.05v.1s.15.05.15.05l-.02-.2ZM24.47,16.68c.05.06.03-.15.15-.1v-.05c-.08-.03-.19.1-.15.15ZM24.57,16.38h-.05v.1h.05v-.1ZM24.72,16.38h-.05v.1h.05v-.1ZM24.7,16.63s.03-.05,0-.05-.03.05,0,.05ZM24.5,16.93s.03-.05,0-.05-.03.05,0,.05ZM24.5,15.78s.03-.05,0-.05-.03.05,0,.05ZM11.85,17.08v.05h.1v-.05h-.1ZM17.21,17.63s.07-.17.02-.2l-.08.18-.1.02c-.03-.24-.07-.46-.05-.7-.1.05-.19.02-.3,0l.25.1v.25c-.08-.02-.16.02-.23.03-.03,0-.06-.05-.07-.03,0,0,0,.28-.1.15-.02-.03,0-.59.02-.65.09-.17.47-.07.65-.1l.03.1.1-.05c-.02.14,0,.27.05.4.08.01.06-.13.05-.17-.01-.08-.07-.14-.05-.23l.1.3.1-.1c.07.17-.1.14-.1.18-.02.13.09.04.1.1v.37s.1-.1.1-.1l.05.1c.09-.05.13-.12.25-.1-.02-.09-.08-.09-.15-.05v-.25s.2,0,.2,0c.02.16-.05.3,0,.45h-.85ZM17.04,16.83s-.03.05,0,.05.03-.05,0-.05ZM17.29,16.83s-.03.05,0,.05.03-.05,0-.05ZM17.14,16.98s-.03.05,0,.05.03-.05,0-.05ZM16.91,17.08l-.3.05c.05.01.2-.03.2.03,0,.06-.17-.03-.15.08h.25s0-.15,0-.15ZM17.34,17.43s-.03.05,0,.05.03-.05,0-.05ZM17.44,17.43s-.03.05,0,.05.03-.05,0-.05ZM17.44,17.53s-.03.05,0,.05.03-.05,0-.05ZM17.66,16.78v.3h.15v-.3h-.15ZM17.74,17.18c-.17-.07-.04.36.08.25.03-.03,0-.22-.08-.25ZM17.91,16.23l.05.2.15-.05v-.15s-.2,0-.2,0ZM16.84,16.03c-.06,0-.19-.04-.18.05.14,0,.28,0,.43,0,.06,0,.19.04.18-.05-.14,0-.28,0-.43,0ZM17.96,17.08h.1c.05-.42-.11-.38-.1,0ZM17.61,16.68v-.1c-.29-.04-.24.1,0,.1ZM17.06,16.38l.15-.05v-.1c-.16-.02-.17-.01-.15.15ZM17.91,16.78h-.05v.3h.05v-.3ZM17.59,16.38h.02s0-.15,0-.15c-.15-.02-.13.07-.02.15ZM17.31,16.03v.05h.25v-.05h-.25ZM17.74,16.38h.02s0-.15,0-.15c-.15-.02-.13.07-.02.15ZM17.96,16.68h.1c.05-.3-.15-.05-.1,0ZM16.96,17.33c-.07.05-.17.03-.15.1h.15s0-.1,0-.1ZM17.66,16.68c.05.05.15-.05.1-.1s-.15.05-.1.1ZM17.86,16.23h-.05v.15h.05v-.15ZM17.36,16.23h-.05v.15h.05v-.15ZM17.91,16.58h-.05v.1h.05v-.1ZM17.46,16.23h-.05v.1h.05v-.1ZM16.84,16.53s.03-.05,0-.05-.03.05,0,.05ZM17.14,15.78s.03-.05,0-.05-.03.05,0,.05ZM16.91,17.56l.02.02.08-.08-.02-.02-.08.08ZM16.63,17.58s.03-.05,0-.05-.03.05,0,.05ZM20.42,17.23v.25h.2v-.25h-.2ZM20.42,16.63v.25s.2,0,.2,0v-.25s-.1.2-.1.2l-.1-.2ZM20.72,17.28v.2h.15v-.2h-.15ZM20.42,16.98v.15h.2v-.15h-.2ZM20.97,16.63v.25c.1,0,.13-.22.1-.25h-.1ZM20.97,16.98v.15h.1v-.15h-.1ZM20.82,16.98v.15s.1,0,.1,0c.03-.06-.08-.17-.1-.15ZM20.77,16.63h-.05v.25h.05v-.25ZM20.87,16.68h-.05v.2h.05v-.2ZM21.17,16.68h-.05v.2h.05v-.2ZM20.77,16.98h-.05v.15h.05v-.15ZM19.21,15.48h-.05v.15h.05v-.15ZM19.36,16.33h-.05v.1h.05v-.1ZM19.34,16.53s.03-.05,0-.05-.03.05,0,.05ZM21.19,17.08s.03-.05,0-.05-.03.05,0,.05ZM18.46,9.82h-.05v.35h.05v-.35ZM18.41,12.12v.05h.15v-.05h-.15ZM18.69,12.02s.03-.05,0-.05-.03.05,0,.05ZM18.51,14.58v.05h.1v-.05h-.1ZM18.61,14.68h-.05v.1h.05v-.1ZM18.59,14.98s.03-.05,0-.05-.03.05,0,.05ZM18.59,14.48s.03-.05,0-.05-.03.05,0,.05ZM18.59,14.38s.03-.05,0-.05-.03.05,0,.05ZM18.59,14.13s.03-.05,0-.05-.03.05,0,.05ZM18.59,13.83s.03-.05,0-.05-.03.05,0,.05ZM18.59,13.73s.03-.05,0-.05-.03.05,0,.05ZM18.59,13.63s.03-.05,0-.05-.03.05,0,.05ZM18.59,13.53s.03-.05,0-.05-.03.05,0,.05ZM18.59,13.38s.03-.05,0-.05-.03.05,0,.05ZM18.59,12.82s.03-.05,0-.05-.03.05,0,.05ZM19.72,12.22c-.06-.02-.08.1-.08.12,0,.07.03.15.03.25,0,.42,0,.84,0,1.26,0,.1,0,.19,0,.3,0,.37,0,.74,0,1.1,0,.06-.04.19.05.18v-3.21ZM23.72,16.33h-.05v.2h.05v-.2ZM23.7,16.28s.03-.05,0-.05-.03.05,0,.05ZM7.14,16.48h-.05v.15h.05v-.15ZM7.42,16.38s.03-.05,0-.05-.03.05,0,.05ZM7.19,17.63s-.25-.06-.25.05h.35s0-.2,0-.2c-.17-.04-.07.11-.1.15ZM7.42,17.63s.03-.05,0-.05-.03.05,0,.05ZM6.19,17.38c.05.05.15-.05.1-.1s-.15.05-.1.1ZM14.06,17.66l.02.02.08-.08-.02-.02-.08.08ZM16.71,11.07s0,.03.03.04.06,0,.07,0c-.06-.06-.06-.03-.1-.05ZM7.49,16.13c.04.1-.02.07.1.2-.01-.13-.07-.14-.1-.2ZM4.64,16.68s0,.03,0,.05c.03,0,.07,0,.1,0,0-.02,0-.03,0-.05-.02,0-.1,0-.1,0ZM23.62,15.86c.06.03.04.1.05.13,0,0,.04,0,.05,0,0-.02.06-.09.05-.1,0,0-.14-.04-.15-.03ZM14.05,5.66c.06-.01.14.01.2,0,0-.02,0-.04,0-.05-.07-.06-.18.04-.2.05ZM16.56,11.02s.01.04.04.04c.04.01.1,0,.11,0-.02-.01-.06-.09-.15-.05ZM10.9,13.23s-.04,0-.05,0c.01.02-.03.11.05.1,0-.03,0-.09,0-.1ZM7.24,15.63s.04.07.05.1c-.02-.04-.05-.09-.05-.1ZM16.16,11.67s-.11.05,0,.05c0-.01,0-.04,0-.05ZM5.66,15.73s-.02.05-.03.05c0,0,.04,0,.05,0l-.03-.05ZM7.29,15.73s.03.07.05.1c-.02-.04-.04-.08-.05-.1ZM5.64,15.78s-.06,0-.05.05c.02,0,.04,0,.05,0,0,0,0-.04,0-.05ZM7.19,15.38c.02-.18.18.11.2.13.12.11.34.01.35.02.02.02-.02.2,0,.27.02.06.12.11.15.08.04-.05.06-.28.05-.35.25.04.1-.1.17-.2.02-.03.22-.1.25-.09.06.01.12.17.23.15-.13.24.02.11.17.15.11.03.05.13.05.2l.07.3v-2.66s-.09,0-.1,0c-.07-.05.15-.02.1-.12-.04-.08-.49-.29-.4-.38h.5v-3.16s.1.12.1.13v1.08s.06,0,.1.03c.07.05.21.16.28.22.56.49,1.06,1.08,1.42,1.73l.2.02c0,.12-.19-.02-.15.13.42.92.59,1.92.55,2.93.06.02.09-.1.09-.13.06-.39-.03-.81-.02-1.19,0-.08.08-.19.08-.28l.1.1.03-.25c.03.06.12.05.15.1,0,.01.07.29.07.33.03.31-.09,1.45.15,1.6.05.03.14.03.2.07-.1-.52-.03-1.07-.05-1.6l.1.05c.05-.05-.07-1.17.02-1.35.04-.09.23-.15.23-.18v-.99s.17-.04.15-.15v-1.9c.04-.11.25-.19.25-.21v-2.5c.03-.28.26-.12.3-.4l-.05-.8c.08-.36.06-.75.06-1.1s-.13-.87,0-1.2c.03-.09.13-.1.14-.21.04-.28-.03-.65,0-.95.19-.07.09-.49.1-.71s.02-.6.05-.8c.01-.09.09-.11.1-.2.04-.26,0-.67,0-.95,0-.06-.04-.19.05-.18.01.65.14,1.28.1,1.93.22.37.04.89.1,1.3.02.12.14.13.15.25.07.51-.07,1.2,0,1.71.02.15.24.13.25.3v2.66s.05.16.05.17c.05.04.22,0,.25.18-.02.6.03,1.21,0,1.81,0,.17-.15.58.05.7.06.04.15,0,.15.05.03.57-.05,1.19,0,1.75,0,.04.04.26.05.27.05.05.18-.12.2-.1l.05,2.91c.13.04.15-.14.15-.22.07-.89.01-2,0-2.91,0-.09-.05-.16-.05-.25-.01-.95.01-1.91,0-2.86-.02-.16-.3-.23-.4-.35.05-.03.09.03.17.03.05,0,.1-.04.15-.05.18-.02.34.07.32-.2.1.09.17.01.23.02.02,0,.25.14.32.16.1.04.24.06.35.07-.11.52-.02,1.09-.05,1.63l.15.08c-.06-.02-.11.03-.15.08.02.06.39.14.4.13,0,0,0-.1,0-.1.01.01.04,0,.05.07.02.19.03.76,0,.96-.02.17-.22.09-.25.2v1.7s.2.1.2.15v1.28s.4-.07.45.08c.04.13-.07.2.16.17.02.1-.12.03-.15.05,0,0,.04.1.05.15-.05,0-.19.01-.2,0-.1-.09.1-.1.1-.12.04-.28-.38-.19-.55-.17l-.05.2c.14-.09.31,0,.45-.1.05.27-.17.12-.33.12-.06,0-.2.05-.22.11v.32c.16-.05.32-.06.5-.05.02.14-.03.09-.11.11-.14.04-.17.08-.19.24.18-.02.37.02.5-.1v.1s.13-.05.13-.05c.04,0,.03.1.02.1-.02.02-.45,0-.53,0-.14,0-.18-.09-.3.1-.11.18-.02.23-.02.37,0,.18,0,.35,0,.53h-.35s.3-.05.3-.05c-.02-.07.05-.26-.05-.25.04.19-.21.05-.35.13-.11.06.08.14.05.18-.03.03-.19-.07-.15.1h1.05l-.4.1c.16,0,.32,0,.47,0,.06,0,.12-.05.2-.05.78-.03,1.57.03,2.35,0l.08-.15h-.8c.05-.22.07-.3-.15-.13-.03.05.08.01.1.03,0,0,0,.1,0,.1h-.7v-1.4h.05v1.3c.17-.03,0-.29.05-.35,0,0,.13-.02.15.03.07.15.05.14-.05.27.07-.03.12.05.13.05,0,0,.1-.07.05-.1l-.03-.25h.3c-.02.28.07.28.05,0h.25c0,.05-.03.2.02.2.07,0-.04-.21.08-.2l.05.2c.05-.2.19-.26-.08-.34-.14-.04-.48-.04-.64-.04-.05,0-.24.07-.28.03-.06-.06.05-.43.05-.52.01-.24.03-.68,0-.91-.02-.12-.09-.14-.2-.12-.02.09.07.02.1.08.06.12-.04.41,0,.57l-.05-.35-.05.15c-.21.02-.41.07-.63.05-.06,0-.07-.05-.07-.05.07,0,.03-.09.08-.1h.42c.01-.08-.11-.05-.18-.05s-.27,0-.28,0c-.03-.03,0-.71,0-.83.01-.32.01-.53,0-.85-.02-.6.05-1.22.05-1.81,0-.06-.06-.12-.05-.2,0-.05.12-.02.15-.11.04-.14-.02-.42,0-.6.04-.35.49-.83.75-1.05.05-.04.06-.1.15-.08v1.8c-.09.02-.02-.09-.08-.1-.09-.01-.17,0-.22.08,0,.05.08.01.1.03,0,0,0,.1,0,.1-.03.02-.12-.04-.1.05.15.04.31-.03.44-.04.05,0,.15.06.17.04.03-.03-.07-.19.1-.15.05.11-.08.19-.09.22,0,.03.04.09.04.15.01.82-.07,1.76,0,2.56,0,.1.06.17.05.27l.15-.05-.02.1h.07s0,1.45,0,1.45h.05v-1.1h.05v1.1s.15.03.1-.1h.05c-.06.22.1.14.1.08v-1.2s-.07-.08-.1-.08v.8c-.15-.05-.05-.12-.05-.13v-.73h.2v-2.38c0-.05-.19-.07-.2-.2,0-.08.13.12.2.08v-2.4l1.65.88v.52s-.2-.03-.2.03.07.26.13.26c.02,0,.06-.05.08-.03.03.03,0,.74,0,.88.04.91.08,1.84.05,2.76,0,.09,0,.42,0,.44-.02.09-.2.13,0,.33h-.78s-.04-.06-.08-.05c.02.06-.05.12-.05.13v.98s-.24,0-.32,0c-.05,0-.21.07-.13.14,0,0,.07-.03.15-.03.03,0,.07.03.12.03.09,0,.16-.1.28,0-.04-.33.09-.16.28-.17.25,0,.22-.19.28-.38h.45s.05.3.05.3c.06-.07.14,0,.15,0,.03-.03-.06-.25.05-.25,0,.05-.03.2.03.2.07,0-.03-.16.08-.15v.25s.1-.35.1-.35l.13.3s-.01-.46.13-.3c.03.04-.07.31.1.35v-.35c.12,0,.08.3.13.3.05,0-.01-.46.13-.3.04.05-.09.35.1.3-.02-.08.05-.16.05-.23,0-.06-.07-.09-.02-.12l.18.05c.02.09-.07.03-.1.05-.02.02-.02.22.07.23.02,0,.06-.04.07-.03.01.02,0,.07.01.09.03.03.12,0,.14,0,.02.01.04.22-.12.11l-.29.09c.29,0,.57.1.5-.3h-.15c.14-.3-.02-.15-.05-.17-.07-.05-.04-.16-.05-.18-.02-.02-.17.02-.2,0-.02-.02,0-.07,0-.09,0-.01-.15.09-.22.1-.11.01-.32,0-.45,0-.05,0-.11-.06-.12-.05-.01.02,0,.07-.01.09s-.28.04-.32.16c-.04-.04-.04-.1-.1-.15-.06-.05-.13-.04-.13-.05v-1.95c.23-.06.1-.07.16.07.04.11.14.08.24.08v-1.05c.18,0,.39-.13.57-.1.05,0,.01.07.03.09.01.01.3.06.32.06.05,0-.04-.13.15-.1.01,0,.11.17.12.18.06.21-.04.46-.05.64-.02.43.02.84.05,1.26.01.17,0,.35,0,.52.33-.08.19-.43.15-.68-.04-.28.1-.13.15-.18.01-.01-.01-.28.05-.35.01-.01.22,0,.27,0,.05.02.08.1.16.1.09,0,.19-.12.25-.1.14.04.07.44.03.55-.17.04-.08-.12-.1-.23-.01-.07-.05-.07-.05-.07,0-.02.01-.07,0-.1h-.2c-.04.39.07.18.1.2,0,0,0,.05.02.05l.03-.05s.07.02.05.1h-.45c0,.25-.03.51.05.75.2-.06.05-.55.1-.6h.15s-.1.18-.1.18c.03.06.09-.06.1,0,.02.23-.02.14-.09.18,0,0-.04.16.04.15-.03-.23.12.03.15,0,.01-.02-.02-.13,0-.15.02-.02.13.01.15,0,.03-.02-.03-.18-.03-.23,0-.03.03-.14.08-.12v.37s-.2.03-.1.13c0,0,.08-.07.15,0v-.65c.06.07.14,0,.15,0,.03.03-.06.25.05.25.04-.13-.05-.33-.04-.42,0-.04.04-.09.04-.16,0-.07-.02-.36,0-.38,0,0,.1.06.17.05.04,0,.15-.08.18-.05.01.01,0,.29,0,.3-.08.08-.21-.01-.09.26.18-.09.3,0,.25.2-.09.02-.02-.09-.07-.1-.03,0-.07,0-.1,0-.06,0,.02.12-.07.1l-.05-.15v.73s.07.05.05.08h-.25c.01.08-.02.2,0,.27,0,.03.05.08.1.05.1-.07,0-.23.1-.23-.01.14,0,.33.15.4-.06-.29.14-.21.2-.25.06-.05-.06-.29-.05-.3.02-.01.09,0,.13-.05s.06-.19.07-.25l.15.05v-.25c.07-.01.32.02.35,0,.02-.02,0-.12.08-.14.04-.01.31-.01.32,0,.08.08.05.43.05.55l.05-.15c.23,0,.28-.06.25.2.11.01.02-.17.05-.2s.13.05.18.05c.04,0,.52,0,.54,0,.05,0,.06-.09.16-.09.04,0,0,.15.13.1v.6l-.04.03.04.02v.15c-.08-.03-.12-.14-.15.02-.01.06-.05.1-.05.15s.04.02.07.04c.11.07.06.13.13.19v.2H1.53v-1l.28.15c.23-.27-.07-.2-.28-.2v-.45c.06.03.28.04.3.06.01.01.03.15.08.14.02,0,.09-.13.2-.15.17-.03.1.05.13.09,0,.01.14.01.14,0,.02-.02-.01-.3,0-.38.02-.15.12-.1.2-.15.06-.04.07-.12.18-.13.13,0,.05.04.02.1l.22.05c.04-.13.07-.09.18-.13.06-.02.08-.11.2,0,.08.07,0,.18.25.13v.4c.15.04.07-.08.12-.15.06-.09.32-.01.42-.11.02-.02.03-.12.08-.14.02,0,.12,0,.12,0,.02.02-.22.45.2.15l.1.25c.09-.1.2-.11.3-.15-.01.07-.15.15-.15.18,0,.1.17-.15.2-.18.03-.01.04-.04.05-.05.02-.02.03-.04.05-.05.03-.02.04-.04.05-.05,0,0,.05,0,.1-.05.03-.02.04-.05.05-.05.02-.02.03-.03.05-.05.04-.03.17-.01.2-.15.03-.02.04-.04.05-.05.03-.02.04-.04.05-.05.38-.28.75-.61.99-1.04l.16-.52c-.01.19.01.39,0,.58,0,.08-.05.14-.05.2-.04.55.17.96.25,1.45,0,.06,0,.22,0,.22.02.02.11-.02.14,0,.02.01,0,.07.04.1.08.05.48.17.6.19.09.02.08-.02.07-.09.14.18.38.46.48.65.05.09.01.24.02.25.01.01.12.04.09-.07,0-.04-.06-.07-.04-.13h.3c.04-.14-.07-.17-.12-.25-.43-.67-.92-1.35-1.43-1.95ZM13.9,3.21v-.95h-.05v.95h.05ZM14,3.61c-.29-.11-.15-.02-.25.2.18.04.07-.16.1-.2.01-.02.16.12.15,0ZM14.06,3.81s.02-.11-.03-.1c-.12.02-.11.12-.13.14-.04.04-.16-.04-.14.06h.35s-.15-.05-.15-.05c-.02-.09.07-.03.1-.05ZM14.05,3.96h-.15v.05h.15v-.05ZM14.05,4.06h-.1v.05h.1v-.05ZM14.05,4.16h-.1v.05h.1v-.05ZM13.7,4.21l-.2.03-.05.17h.25c.02-.1-.15,0-.15-.08s.2.04.15-.13ZM14.05,4.26h-.1v.05h.1v-.05ZM13.6,4.76c.18,0,.06,0,.07-.07,0-.07.05-.15.03-.23h-.25s.2.05.2.05c.02.1-.12.03-.15.05,0,0,0,.14,0,.15.03.02.05-.03.1.05-.04,0-.14,0-.15,0,0,0,.07.18,0,.25h.25s-.15-.1-.15-.1c-.02-.09.23-.03.15-.1-.02-.02-.05.04-.1-.05ZM13.7,5.06h-.25v.05h.25v-.05ZM13.7,5.16h-.25c-.01.11.2,0,.2.08,0,.05-.2,0-.2.13h.25s0-.2,0-.2ZM13.48,5.46s-.03.05,0,.05.03-.05,0-.05ZM14.26,5.61s.01-.03-.03-.04c-.05-.01-.26-.02-.27,0-.05.05,0,.13.1.1,0,0-.12.06-.1.1l.3-.05-.15.1.18.1c.07-.07,0-.18-.03-.25.08-.02.02-.03,0-.05ZM13.85,5.81l-.1.02c.08.1.09.2-.05.18-.02.09.08.03.1.05.07.06-.12.02-.1.1.04,0,.1-.02.1.03.04.28-.04.18-.1.22-.04.03.04.07.1.05v2.25c.17.04.05-.12.05-.18v-2.73ZM14.1,5.86h-.15v.05h.15v-.05ZM13.48,5.96s-.03.05,0,.05.03-.05,0-.05ZM14.03,5.96s-.03.05,0,.05.03-.05,0-.05ZM14.31,5.96h-.15v.05h.15v-.05ZM14.1,6.06h-.1v.05h.1v-.05ZM14.31,6.06s-.14,0-.15,0c-.06.05.08.05.09.06.02.02,0,.08,0,.09.04.06.08-.12.05-.15ZM13.55,6.16h-.1v.05h.1v-.05ZM14.1,6.16h-.1v.05h.1v-.05ZM13.73,6.21s-.03.05,0,.05.03-.05,0-.05ZM14.31,6.26h-.1v.05h.1v-.05ZM13.73,6.31s-.03.05,0,.05.03-.05,0-.05ZM13.48,6.36s-.03.05,0,.05.03-.05,0-.05ZM14.31,6.56v-.2h-.05v.2h.05ZM14.28,6.61s-.03.05,0,.05.03-.05,0-.05ZM13.98,6.71s-.03.05,0,.05.03-.05,0-.05ZM14.31,6.81v-.1h-.05v.1h.05ZM13.48,6.76s-.03.05,0,.05.03-.05,0-.05ZM13.58,6.81s-.03.05,0,.05.03-.05,0-.05ZM13.48,6.86s-.03.05,0,.05.03-.05,0-.05ZM14.31,7.31c0-.09,0-.18,0-.28,0-.06.04-.19-.05-.18,0,.09,0,.18,0,.28,0,.06-.04.19.05.18ZM13.6,6.96h-.15v.05h.15v-.05ZM13.98,7.16s-.03.05,0,.05.03-.05,0-.05ZM14.28,7.36s-.03.05,0,.05.03-.05,0-.05ZM13.5,7.46c-.12,0-.26-.04-.3.1.12,0,.26.04.3-.1ZM14.31,7.77v-.3h-.05v.3h.05ZM13.98,7.56s-.03.05,0,.05.03-.05,0-.05ZM13.45,7.62h-.25v.05h.25v-.05ZM13.58,7.62s-.03.05,0,.05.03-.05,0-.05ZM13.98,7.67s-.03.05,0,.05.03-.05,0-.05ZM13.5,7.72h-.3s0,.3,0,.3h.25c-.06-.06.02-.18,0-.2-.03-.02-.12.04-.1-.05l.15-.05ZM13.58,7.72s-.03.05,0,.05.03-.05,0-.05ZM13.53,7.82s-.03.05,0,.05.03-.05,0-.05ZM14.28,7.82s-.03.05,0,.05.03-.05,0-.05ZM14.28,7.92s-.03.05,0,.05.03-.05,0-.05ZM13.58,7.97s-.03.05,0,.05.03-.05,0-.05ZM13.5,8.07h-.3v.05h.3v-.05ZM14.28,8.07s-.03.05,0,.05.03-.05,0-.05ZM13.5,9.07c-.16.01-.07-.03-.07-.07,0-.09-.08-.24.02-.31.06-.04.16.02.15-.07l-.2-.03c.07-.12-.06-.2.1-.17v-.05s-.1,0-.1,0v-.05s.1,0,.1,0c.02-.1-.12,0-.1-.1l.15-.05h-.35s0,1.75,0,1.75c0,.01.15-.03.15.03,0,.06-.17-.03-.15.08h.35s-.1.1-.1.1c.16.02.17.01.15-.15h-.2s.05-.28.05-.28l-.2-.03c-.01-.11.18-.03.2-.05,0-.01-.12-.17.15-.15l-.2-.05.2-.05c0-.1-.17,0-.05-.13l-.02-.02c-.2.12-.06.02-.13-.1l.2.05-.1-.1s.11.02.1-.02l-.05-.33c-.09-.01-.05.12-.05.18,0,.05,0,.17,0,.18ZM13.98,8.17s-.03.05,0,.05.03-.05,0-.05ZM14.31,8.27h-.1v.05h.1v-.05ZM14.46,8.52l.1-.1h-.3s.2.1.2.1h-.25s0,.05,0,.05h.25s-.25.05-.25.05c-.02.1.15.01.15.08,0,.06-.14-.01-.15.05-.03.24.04.14.1.18.08.04-.13.04-.1.1l.25.05h-.25s.2.1.2.1c-.41-.05-.1.19-.1.23,0,.03-.14-.04-.15.07l.15.03-.1.08.25.05h-.25s.05.1.05.1l-.1.03c.17.14,0,.23.01.3,0,0,.03.12.04.13.05.04.19-.1.25.03l-.25.07c.34-.02.34.07,0,.05v.2c.28-.02.28.07,0,.05.08.09-.03.13-.03.17s.07.15.04.23h.15s-.03-.14.03-.15c.04,0,.04.19.18.15v-1.98s-.2-.03-.2-.03c-.01-.11.17-.02.2-.05.03-.03-.02-.22-.03-.28,0-.05.09-.09-.07-.07v-.05ZM13.6,8.52h-.1v.05h.1v-.05ZM13.9,8.77c-.06-.06-.1,0-.1.07-.04.83.05,1.66,0,2.48.06.07.1,0,.1-.07,0-.13,0-.27,0-.4,0-.1,0-.2,0-.3,0-.18-.03-.37.05-.53l-.1-.03c.09-.18.05-.45.02-.66l.03-.57ZM14.1,9.02v-.2h-.05v.2h.05ZM14.08,9.17s-.03.05,0,.05.03-.05,0-.05ZM15.91,9.62c.16-.02.43.22.45-.02.02-.22-.3-.24-.45-.33v.35ZM14.1,9.47v-.1h-.05v.1h.05ZM13.6,9.52c-.14-.02-.1.02-.1.12,0,.09,0,.18,0,.28.15.01.09,0,.08-.1-.01-.11-.02-.19.02-.3ZM16.01,9.72c-.14-.02-.1.02-.1.12,0,.08,0,.15,0,.23.09,0,.04-.11.05-.18,0-.07.02-.11.05-.17ZM16.31,10.02c.07-.08-.18-.22-.23-.25-.04.05.07.12.1.15.03.03.11.12.13.1ZM13.4,10.07h-.2v.05h.2v-.05ZM16.13,10.12s-.03.05,0,.05.03-.05,0-.05ZM16.23,10.12s-.03.05,0,.05.03-.05,0-.05ZM13.4,10.27v-.1s-.1.08-.1.08v.02s.1,0,.1,0ZM13.6,10.17h-.15v.05h.15v-.05ZM14.08,10.22s-.03.05,0,.05.03-.05,0-.05ZM16.36,11.02c-.12-.37.14-.89-.45-.8-.01.1.2.07.2.13,0,.07-.21-.04-.2.08.42-.03.16.03.17.23,0,.04.04.12.06.17,0,.04-.02.08,0,.1.03.04.2.13.23.1ZM13.2,10.32c-.21-.03-.28.04-.25.25.3.02.15,0,.17-.1.01-.04.09-.14.08-.15ZM13.4,10.32c-.16-.03-.06,0-.07.07,0,.07-.05.14-.03.23l.1-.3ZM13.6,10.32c-.18-.02-.02.04-.1.15h.1s0-.15,0-.15ZM14.08,10.37s-.03.05,0,.05.03-.05,0-.05ZM18.35,10.61s.1-.18.03-.19l-.53.63.32-.33c.03-.07.14-.08.17-.11ZM14.08,10.47s-.03.05,0,.05.03-.05,0-.05ZM13.6,10.52h-.1v.05h.1v-.05ZM14.08,10.57s-.03.05,0,.05.03-.05,0-.05ZM13.15,10.62h-.2v1.4h.15s0,.05,0,.05c-.22,0-.13-.01-.1.15h.15s0-1.6,0-1.6ZM13.5,10.62v.85c.17.02.07-.02.08-.1,0-.18-.01-.35,0-.53,0-.02.07-.39-.07-.23ZM13.4,10.67c-.1-.1-.21.22.05.15v-.05s-.1,0-.1,0l.05-.1ZM14.1,10.92v-.1h-.05v.1h.05ZM13.4,12.98v-2.03s.07-.06.05-.08h-.15s.03.39.03.48c0,.23-.07.47,0,.7l-.03.1.03.15-.03.65s.1.03.1.02ZM20.41,11.28s-.1,0-.15-.03c-.14-.06-.43-.17-.45-.33v.2s-.25-.05-.25-.05v.3s.3,0,.3,0v.2s.19-.05.19-.06c.02-.03,0-.16.08-.19.06.03,0,.13.07.18.04.03.24.03.25.02.02-.02-.04-.23-.06-.24ZM14.08,10.97s-.03.05,0,.05.03-.05,0-.05ZM14.36,11.02l-.3.05c-.03.1.26.03.3,0,0,0,0-.05,0-.05ZM14.56,11.07c-.05-.05-.15.05-.1.1s.15-.05.1-.1ZM17.81,11.42c-.05-.09.05-.25.05-.28,0-.11-.18.18-.1.28h.05ZM10.85,13.23c-.25-.46-.46-.93-.8-1.33-.2-.23-.47-.44-.68-.68l.8.95c.07.1.39.64.33.7-.05.05-.6-.02-.7,0v.25h.75c.01.09-.11.05-.18.05-.1,0-.2,0-.3,0l-.33.1h.95v.05h-.95v.05h1c.01.09-.11.05-.18.05-.22,0-.43.04-.65.05-.06,0-.19-.04-.18.05h.95v.05h-1.05v.05h1.2v.05h-1c-.01.09.11.05.18.05.1,0,.2,0,.3,0l.43.1h-.95v.05h1.15v.05h-1.2v.05h1v.05h-.9l.6.1c-.16,0-.32,0-.48,0-.06,0-.19-.04-.18.05.13-.04.33.05.42.04.04,0,.09-.05.16-.04.05,0,.1.05.15.05.1,0,.2,0,.3,0,.06,0,.19-.04.18.05h-1.45v.05h1.45v.05h-1.35v.05h.98s.05.04.1.05c.09.01.19,0,.28,0v.05s-1.15,0-1.15,0v.05h1.3v.05h-1.6v.05h1.55v.05h-1.4v.05h1.3v.05h-1.05l.38.1c.07,0,.13,0,.2,0,.06,0,.19-.04.18.05h-1.05v.05h1.55v.05h-1.65v.05h1.5v.05h-1.1c-.02.08.04.04.12.06.03,0,.05.04.06.04h.98v.05h-1.35v.05h1.4v.05h-1.6v.05h1.7v.05h-1.45v.05h1.2l-.37.1c-.14,0-.27,0-.4-.05l-.28.1h1.2v.05h-1.55v.05h1.55v.05h-1.4l.43.1c.12-.07.19,0,.3,0,.17,0,.34,0,.5,0,.06,0,.19-.04.18.05h-1.6v.05h1.65v.05h-1.4c-.01.09.11.05.18.05.13,0,.27,0,.4,0,.06,0,.12.05.2.05.11,0,.7.02.73,0,0,0,0-.17,0-.23,0-.06-.04-.19.05-.18v.55s-.98,0-.98,0l-.52.1h1.45v.05h-1.45v.05h1.45c.01.09-.11.05-.18.05-.15,0-.3,0-.45,0l-.23.1h.78s.06-.07.08-.05v.2c-.19,0-.39-.01-.58,0-.26.01-.65.08-.9.05-.08,0-.15-.05-.2-.05-.03,0-.19.04-.17.1h.62s.03.1.03.1c.09.02.02-.09.08-.1.2-.03.37.04.55.06.12.01.26-.01.38,0,.03.09-.13.03-.1.07s.07.07.12.08c.18.03.56.01.76,0,.37-.02.6-.03.98.02.05,0,.12-.04.15.08-.63-.03-1.25.04-1.88.05-.06,0-.19-.04-.18.05h2.58s.19-.05.24-.06.15-.03.14-.09c-.26-.04-.5.06-.75.05,0-.23,0-.12-.08-.12-.04,0-.07-.07-.15-.08-.2-.03-.42,0-.6,0-.08,0-.2-.09-.3-.1-.19-.03-.45-.03-.63.02l-.1-.05.1-.5c-.04-.15.04-1.05,0-1.08-.01-.01-.07.07-.1.03.1-.15.03-.36.05-.53l-.1.1c0-.11.01-.22,0-.32-.03-.25-.19-.59-.2-.81,0-.09.05-.14.05-.22l-.1.1c-.03-.14-.09-.25-.1-.4.11,0,0-.09,0-.1,0-.02,0-.16-.05-.1,0,0,0,.09,0,.1ZM14.13,11.22s-.03.05,0,.05.03-.05,0-.05ZM14.81,11.22h-.35s.1.08.1.08l-.1.08c.34-.02.34.07,0,.05v.2c.34-.02.34.07,0,.05l.15.08-.15.05c0,.06.2-.01.2.05l-.2.03c-.03.1.2,0,.2.08s-.28-.06-.2.15c.03.09.16.05.2.1l-.18-.02s-.03.1-.02.1c.03.03.25-.06.25.05h-.25s-.05.15-.05.15h.3c0,.11-.22.02-.25.05-.09.07.25.03.25.08,0,.06-.23,0-.25.03-.02.02.07.38,0,.45l.35-.05c.01-.11-.2,0-.2-.08,0-.06.18,0,.2-.02.05-.04-.01-1.12-.03-1.28.03-.07.05-.41.03-.43ZM16.16,11.67s-.12-.07.01-.1c.06-.02.04-.14.04-.15-.02-.01-.09.09-.1.03l-.05-.18v.62s.15.03.15.03l-.05-.2c.09,0,.02-.07,0-.05ZM14.13,11.32s-.03.05,0,.05.03-.05,0-.05ZM13.9,11.37l-.1.07-.05,4.73.15-.12v-4.68ZM20.72,11.57c.07-.08-.08-.26-.2-.2-.02.2,0,.13.12.16.03,0,.07.06.08.04ZM14.21,11.42c-.16-.04-.1.17-.09.27,0,.03.06.07.04.08-.18-.01,0,.07-.09.2l.1.03-.1.13.15-.03v-.67ZM16.36,11.42h-.1c0,.32.03.23.1,0ZM16.81,11.87c.06-.37-.11-.36-.4-.45v.25s-.15.03-.15.03c.05.08.53.2.55.18ZM19.59,11.42s-.03.05,0,.05.03-.05,0-.05ZM13.6,11.52h-.1v.25h.1v-.25ZM20.82,12.52v3.56c-.09-.05-.34-.02-.23.1l.33-.05v-3.68c-.05-.16-.04-.38-.13-.52-.07-.13-.46-.35-.63-.35.07.17.28.16.42.26.24.16.17.34.23.59l-.8-.02c0,.14.1.1.18.12.06.01.16.05.2.05.08,0,.37-.11.42-.05ZM13.6,11.82c-.06-.07-.1,0-.1.07-.01.23,0,.47,0,.7,0,.2.01.4,0,.6,0,.11-.08.21-.05.33l-.1-.5v.6s.15.05.15.05c-.18-.06-.23.17-.05.05v.15s-.1-.05-.1-.05v.25s.1-.03.1-.03c-.08.03,0,.11,0,.12-.03.02-.08,0-.09,0,0,0,0,.1,0,.1.02,0,.07-.01.09,0,.02.01-.03.04-.03.07s.04.06.03.07c-.03.02-.09-.02-.1.03,0,.07.04.13.05.2.02.21,0,.52,0,.75,0,.12-.13.2.05.18l-.1.05v.05s.1,0,.1,0l-.1.18.1.05c-.07.07-.04.17-.05.25,0,.05-.06.12-.05.12.03.02.12-.04.1.05l-.15.05c.22-.01.37.09.4-.18.04-.32-.03-.77-.03-1.1,0-.47-.05-1.11-.02-1.55,0-.13.14-.25-.05-.23.08-.07.1-.39.04-.44-.03-.02-.21,0,0-.08l-.05-.97ZM20.37,11.92c-.04-.14-.18-.1-.3-.1.04.14.18.1.3.1ZM17.84,11.92s-.03.05,0,.05.03-.05,0-.05ZM16.16,11.97h-.1c0,.32.03.23.1,0ZM19.57,12.15v3.31s.05.12.05.12c0,0,.15-.08.15.03v1.33h.05v-4.58s-.1-.13-.05-.18c.03-.03.25.06.25-.05-.11.06-.26-.09-.27-.09-.03,0-.17.09-.18.12ZM17.96,12.07h-.15v.05h.15v-.05ZM16.41,12.17l-.25-.05c-.02.09.1.02.1.08,0,.05-.09,0-.1.05-.01.07.03.14.03.2s-.04.26-.03.27c.02.02.2-.03.2.03s-.18,0-.2.03c-.02.02.04.05.04.08,0,.07-.02.2-.04.27.37.02.22,0,.22-.23,0-.05.04-.12.03-.2,0-.06-.08-.01-.1-.03-.07-.04.09-.05.1-.05,0,0,0-.14,0-.14-.02-.01-.08,0-.1,0-.07-.04.09-.05.1-.05.01-.01-.03-.04-.03-.07s.05-.06.03-.07c-.03-.02-.1.02-.1-.03,0-.06.12.02.1-.08ZM14.21,12.17c-.14-.16-.07.16-.07.18,0,.04-.04.09-.03.15,0,.08.06.14,0,.23.19.04.07-.19.07-.28,0-.06.07-.23.03-.28ZM16.11,12.42v-.2h-.05v.2h.05ZM13.13,12.27s-.03.05,0,.05.03-.05,0-.05ZM17.61,14.48v-2.2h-.05v2.2h.05ZM18.51,15.35c.04.36,0,.87,0,1.25,0,.03.1.1.15.08,0-.09.05-.25.05-.33-.02-.6.04-1.25-.05-1.86.15-.04.06-.03.07-.1.01-.14.04-.25.03-.4-.03-.39,0-.75-.01-1.14,0-.03-.03-.05-.03-.06,0-.03.23-.02,0-.1.2-.5-.12-.44-.5-.43l.2.05v.05h-.2c-.03.11.2,0,.2.08,0,.05-.15.02-.2.03,0,.11.15.05.15.07,0,.02-.18.25-.15.28.03.02.25-.04.25.03,0,.07-.25-.04-.25.08h.35s-.3.05-.3.05c0,.12.25,0,.25.08,0,.05-.2.01-.25.03-.01.11.2,0,.2.08s-.21-.04-.2.08l.25.05h-.25s.2.1.2.1h-.25c0,.12.25,0,.25.08,0,.05-.2.01-.25.03l.15.05v.05h-.15v.05h.15v.05h-.15c-.03.11.2,0,.2.08,0,.07-.21-.04-.2.08.06.01.3-.03.3.03,0,.03-.24.04-.3.08l.3.08-.3.03c-.01.11.2,0,.2.08,0,.06-.18,0-.2.03-.08.07.32.14.4.1l-.4.05.3.05v.05h-.3s.3.08.3.08l-.3.03c-.02.1.12.03.15.05.06.04-.21.06-.1.15.02.02.2-.03.2.03,0,.05-.2.01-.25.03l.15.05c0,.09-.15.08-.15.13,0,.05.15.02.2.03l-.15.1c.24-.02.18.1.21.27,0,.03.04.05.04.06ZM20.27,12.27h-.2v.05h.2v-.05ZM21.09,12.27s-.03.05,0,.05.03-.05,0-.05ZM20.57,12.32h-.25v.05h.25v-.05ZM13.05,12.57s-.03-.05-.04-.08c-.01-.06.06-.09.02-.12-.05.08-.21.03-.23.05-.03.02.02.62,0,.73l.08.37c.13.02.07-.1.07-.18.01-.19.06-.39,0-.57l.15.2-.15-.25c-.01-.1.1-.03.15-.05.06-.02-.09-.08-.15-.05-.02-.09.07-.03.1-.05ZM13.13,12.37s-.03.05,0,.05.03-.05,0-.05ZM10.22,12.47s-.03.05,0,.05.03-.05,0-.05ZM16.11,12.67v-.2h-.05v.2h.05ZM20.77,13.43v-.8c-.09-.01-.05.11-.05.18,0,.13,0,.25,0,.38l-.43-.1c-.06,0,.04-.08.02-.1-.03-.03-.13.05-.17.05-.06,0-.19-.11-.23.02-.03.09.08.1.12.13.21.13.41.12.65.15.06,0-.01.12.08.1ZM21.12,16.13v-3.46c-.09-.02-.03.09-.05.18-.01.05-.05.09-.05.1v2.96s.09.14.05.23h.05ZM9.75,12.93c-.17.08-.6-.3-.7-.2,0,0-.02.14.03.15.13.03.32.08.45.1.05,0,.23.04.22-.05ZM14.21,12.77h-.15c-.03.08.13.03.1.07-.05.07-.17.27,0,.23l-.1.1c.1,0,.14.06.15-.07,0-.05.01-.32,0-.33ZM16.11,12.93v-.15h-.05v.15h.05ZM20.02,12.88h-.1v.05h.1v-.05ZM16.08,12.98s-.03.05,0,.05.03-.05,0-.05ZM13.1,13.33c0-.11.07-.29-.05-.3v.3s.05,0,.05,0ZM16.11,13.48c0-.09,0-.18,0-.28,0-.06.03-.14-.05-.12,0,.09,0,.18,0,.28,0,.06-.03.14.05.12ZM14.56,13.13h-.1v.05h.1v-.05ZM14.63,13.13s-.03.05,0,.05.03-.05,0-.05ZM14.86,13.13h-.1v.05h.1v-.05ZM16.41,13.18h-.25c.07.13,0,.29,0,.43,0,.19.03.41.03.61,0,.08-.01.19-.03.26l.1.03-.1.03v.05s.1,0,.1,0c.02.1-.12,0-.1.1.05.01.2-.03.2.03,0,.06-.18,0-.2.03,0,0,.08.12,0,.2h.25c-.05-.09,0-.17,0-.28,0-.06-.03-.11-.03-.15,0-.05.04-.12.03-.2,0-.06-.08-.01-.1-.03-.06-.04.21-.06.1-.15-.02-.02-.15.03-.15-.03s.13,0,.15-.03c.03-.02-.03-.14-.03-.18,0-.09.05-.19.03-.3,0-.06-.08-.01-.1-.03-.08-.04.13-.03.1-.1-.28.02-.28-.07,0-.05v-.25ZM14.21,13.23c-.19-.03-.03.09-.1.2h.1s0-.2,0-.2ZM14.61,15.63l-.15.1c.21.01.29.03.25.25l-.25-.05v.25s.25,0,.25,0l-.25.15.35.05h-.35v.05s.25.05.25.05c-.14,0-.79.11-.85.05-.01,0,.07-.15.05-.28,0-.05-.14-.03-.15-.03-.02.02.09.13.09.18,0,0-.04.12-.04.12-.02.01-.35,0-.42,0-.05,0-.1-.05-.15-.05-.08,0-.18.16-.32.1-.01.11.17.02.2.06s-.04.09.13.09h.95c.07,0,.07.15,0,.15h-.83v.05h.88c.08,0,.07-.19.08-.2.01-.02.16.05.22.05.19.01.39,0,.58-.05,0,.05.03.14-.03.15-.12.01-.27,0-.4,0-.06,0-.19-.04-.18.05h1.4c.01-.09-.11-.05-.18-.05-.16,0-.32,0-.48,0-.04-.28.14-.1.28-.1.09,0,.25-.1.38-.05l-.18-.05c-.52.02-.36-.08.05-.05l.12-.1c-.16.06-.45.08-.62.05-.05,0-.02-.18-.2-.15-.05,0,0,.1-.05.1-.32.05-.18-.02-.17-.13,0-.12.02-.18.03-.3.03-.22,0-.61,0-.86,0-.47-.01-.97-.02-1.45,0-.09.03-.48,0-.52-.06-.1-.13,0-.2,0s-.14-.07-.23-.05c.07.11-.07.17.1.15l-.1.2.25-.1-.25.15.25.05-.25.05.25.05-.25.05.25.1-.25.05v.05h.25v.05h-.25v.05h.25v.05h-.25v.05h.25v.05h-.25v.05h.25v.05h-.25v.05h.25v.05h-.25s.25.05.25.05c-.05.16-.14.03-.25.05.05.06-.02.29,0,.3.02.02.15-.03.15.03s-.13,0-.15.03c-.03.02.06.19,0,.25h.25s-.25.05-.25.05v.18c0,.06.15-.01.15.05,0,.06-.17-.03-.15.08.08-.03.13.04.15.05h-.15s0,.03,0,.03v.02s.15,0,.15,0ZM9.2,13.33h-.1v.05h.1v-.05ZM10.97,13.38s-.03.05,0,.05.03-.05,0-.05ZM13.1,13.53v-.15h-.05v.15h.05ZM9.2,13.63c.04-.1-.08-.26-.15-.2-.02.02.14.12.05.2h.1ZM14.21,13.48h-.1v.25h.1v-.25ZM20.37,13.48h-.1v.05h.1v-.05ZM16.08,13.53s-.03.05,0,.05.03-.05,0-.05ZM12.7,13.58l-.2.05c.07.11-.1.28.1.25l-.1.08.06,2.07c.23.03.02.04,0,.06-.01.01,0,.31.07.35.12.02.08-.1.07-.18,0-.11-.04-.23-.03-.3,0-.05.07-.1.07-.15,0-.05-.07-.15-.07-.2,0-.11.04-.34.04-.5,0-.37,0-.74,0-1.11,0-.14.06-.27,0-.42ZM12.8,13.58v2.25c.22,0,.13.01.12-.1-.02-.59-.04-1.24,0-1.83,0-.03.04-.06.03-.07-.03-.02-.12.03-.1-.05.18.03,0-.1.1-.2h-.15ZM13.1,13.68v-.1h-.05v.1h.05ZM16.11,13.93v-.3h-.05v.3h.05ZM20.42,13.63h-.1v.05h.1v-.05ZM9.2,13.68h-.1v.05h.1v-.05ZM20.77,13.83v-.15h-.05v.15h.05ZM13.1,14.18c0-.09,0-.18,0-.28,0-.06.04-.19-.05-.18,0,.09,0,.18,0,.28,0,.06-.04.19.05.18ZM20.37,13.73h-.15v.05h.15v-.05ZM9.2,13.78c-.27-.01-.13.05-.05.18.03.05-.13-.01-.1.07.25.05.08-.11.15-.25ZM11.15,13.88v-.1h-.05v.1h.05ZM14.21,13.78h-.1v.05h.1v-.05ZM14.21,13.88h-.1v.05h.1v-.05ZM20.77,13.98v-.1h-.05v.1h.05ZM20.22,13.98c.08-.04.17.05.18.05.07,0-.06-.15-.18-.1v.05ZM11.2,14.08v-.1h-.05v.1h.05ZM14.21,13.98c-.14-.02-.1.02-.1.12,0,.11,0,.22,0,.33.15.01.09,0,.08-.1-.01-.13.02-.22.02-.35ZM16.11,14.18v-.2h-.05v.2h.05ZM9.2,14.08c-.16,0-.2-.01-.08.1l.08-.1ZM20.42,14.08h-.25v.05h.25v-.05ZM20.74,14.08s-.03.05,0,.05.03-.05,0-.05ZM11.25,14.23v-.1h-.05v.1h.05ZM20.32,14.18h-.15v.05h.15v-.05ZM20.39,14.18s-.03.05,0,.05.03-.05,0-.05ZM9.2,14.23h-.15v.05h.15v-.05ZM13.1,14.38v-.15h-.05v.15h.05ZM11.3,14.48v-.2h-.05v.2h.05ZM20.42,14.28h-.25v.05h.25v-.05ZM9.2,14.33c-.17-.02-.11.1-.15.2.26.03.05-.04.15-.2ZM16.08,14.38s-.03.05,0,.05.03-.05,0-.05ZM20.42,14.38h-.25v.05h.25v-.05ZM13.1,14.93c0-.11,0-.22,0-.33,0-.06.04-.19-.05-.18,0,.11,0,.22,0,.33,0,.06-.04.19.05.18ZM22.72,14.43c-.15-.02-.08.03-.1.12-.08.37-.1.83-.06,1.21-.06.14,0,.26,0,.39,0,.06-.03.13-.02.2,0,.19.05.38.03.58.09.01.05-.11.05-.18.01-.57-.01-1.13,0-1.7.05-.11.11-.03.12-.03.05,0-.02-.06-.03-.12-.02-.15.01-.32,0-.48ZM11.83,14.48s-.03.05,0,.05.03-.05,0-.05ZM14.21,14.48h-.1v.05h.1v-.05ZM20.42,14.48h-.2v.05h.2v-.05ZM20.74,14.48s-.03.05,0,.05.03-.05,0-.05ZM16.08,14.53s-.03.05,0,.05.03-.05,0-.05ZM17.61,15.73v-1.2h-.05v1.2h.05ZM9.2,14.58l-.1.3c.15-.04.03-.2.1-.3ZM14.21,14.58c-.14-.02-.1.02-.1.12,0,.13-.04.36.1.25-.08-.11.01-.26,0-.38ZM20.42,14.58l-.25.05c-.02.12.3,0,.25-.05ZM20.74,14.63s-.03.05,0,.05.03-.05,0-.05ZM22.17,14.78s.14-.1.1-.15c-.02-.03-.14.1-.1.15ZM22.37,16.73v-2.05h-.05v2.05h.05ZM20.74,14.73s-.03.05,0,.05.03-.05,0-.05ZM16.08,14.78s-.03.05,0,.05.03-.05,0-.05ZM20.42,14.78h-.25v.05h.25v-.05ZM20.42,14.88h-.3v.05h.3v-.05ZM9.2,14.93h-.15v.05h.15v-.05ZM13.1,15.18v-.2h-.05v.2h.05ZM16.08,14.98s-.03.05,0,.05.03-.05,0-.05ZM16.41,14.98h-.25c.07.06,0,.15,0,.15.02.02.2-.03.2.03s-.18,0-.2.03v.05l.2.03-.2.03v.05h.2c.03.12-.19-.02-.2.1h.25s0-.45,0-.45ZM20.42,14.98h-.25v.05h.25v-.05ZM9.2,15.03c-.13-.02-.09.02-.11.12-.01.06,0,.12-.04.18.2,0,.13.02.12-.1,0-.08-.02-.12.03-.2ZM14.21,15.03c-.16-.03-.06,0-.07.07,0,.07-.05.14-.03.23.17.02.07-.03.08-.1,0-.07.03-.13.02-.2ZM16.71,15.43v-.35h-.05v.35h.05ZM20.42,15.08h-.25v.05h.25v-.05ZM20.34,15.18s-.03.05,0,.05.03-.05,0-.05ZM13.08,15.23s-.03.05,0,.05.03-.05,0-.05ZM20.19,15.23s-.03.05,0,.05.03-.05,0-.05ZM13.1,15.73c0-.09,0-.18,0-.28,0-.06.03-.14-.05-.12,0,.09,0,.18,0,.28,0,.06-.03.14.05.12ZM20.74,15.33s-.03.05,0,.05.03-.05,0-.05ZM9.2,15.38h-.15v.05h.15v-.05ZM14.21,15.38h-.1s0,.15,0,.15c.18.01.06-.03.06-.08,0-.03.06-.06.04-.08ZM20.42,15.43h-.15v.05h.15v-.05ZM20.74,15.43s-.03.05,0,.05.03-.05,0-.05ZM6.72,15.48l-.13.18.02.02.13-.18-.02-.02ZM9.2,15.48c-.26-.03-.05.04-.15.2.25.03.08-.05.15-.2ZM16.41,15.48h-.25v.05h.25v-.05ZM21.67,15.56c.06.36-.04.85,0,1.23h.05v-.88s.04-.04.05-.1c0-.05,0-.27,0-.28s-.05,0-.07,0c-.02,0-.03-.05-.05-.05-.07,0,.02.06.03.07ZM20.74,15.53s-.03.05,0,.05.03-.05,0-.05ZM14.21,15.58c-.2-.04-.07.24-.07.33,0,.05-.06.19-.03.23,0,0,.11.02.1-.02l-.03-.35.03-.17ZM16.36,15.58h-.2v.05h.2v-.05ZM8.54,15.63c-.06-.07-.1,0-.1.07,0,.16-.04.41.08.53l.02-.6ZM16.08,15.63s-.03.05,0,.05.03-.05,0-.05ZM20.19,15.63s-.03.05,0,.05.03-.05,0-.05ZM20.77,15.73v-.1h-.05v.1h.05ZM8.69,15.93v-.25h-.05v.25h.05ZM16.23,15.68s-.03.05,0,.05.03-.05,0-.05ZM18.41,15.83v-.15h-.05v.15h.05ZM6.57,15.73c-.07.08-.14.17-.19.26-.02.04-.08.14-.06.19l.25-.45ZM9.2,15.73c-.06-.03-.17.08-.15.1h.15s0-.1,0-.1ZM13.08,15.78s-.03.05,0,.05.03-.05,0-.05ZM14.66,15.83c-.08.01-.13-.02-.2-.05v.1s.2,0,.2,0v-.05ZM20.77,15.93v-.15h-.05v.15h.05ZM24.32,15.78h-.1v.05h.1v-.05ZM9.2,15.88h-.15v.05h.15v-.05ZM12.95,15.88c-.26-.04-.12.12-.12.28,0,.06-.07.23-.03.28.13.15.13-.34.15-.35-.22-.03-.03-.04,0-.06,0,0-.06-.09,0-.15ZM13.08,15.88s-.03.05,0,.05.03-.05,0-.05ZM18.41,15.98v-.1h-.05v.1h.05ZM20.37,15.88h-.1v.05h.1v-.05ZM7.99,16.18s.05-.12.05-.13c0-.03-.12-.1-.15-.08-.02.02.06.25.1.2ZM8.14,16.08v-.1h-.05v.1h.05ZM9.2,15.98h-.15v.1h.15v-.1ZM13.08,15.98s-.03.05,0,.05.03-.05,0-.05ZM20.42,15.98h-.1v.05h.1v-.05ZM20.19,16.03s-.03.05,0,.05.03-.05,0-.05ZM13.1,16.18v-.1h-.05v.1h.05ZM20.29,16.08s-.03.05,0,.05.03-.05,0-.05ZM20.39,16.08s-.03.05,0,.05.03-.05,0-.05ZM20.49,16.08s-.03.05,0,.05.03-.05,0-.05ZM9.2,16.13h-.15v.1h.15v-.1ZM14.21,16.18h-.1v.05h.1v-.05ZM3.18,16.23h-.15s0,.25,0,.25c.09-.01.2-.2.15-.25ZM6.27,16.23l-.08.08.02.02.08-.08-.02-.02ZM13.1,16.33v-.1h-.05v.1h.05ZM20.52,16.48l.03-.25-.08.3c.2.01.38-.03.58-.05.04,0,.03-.1.03-.13-.02-.08-.24-.09-.25-.08-.01.01.07.07.03.1-.04-.06-.26-.07-.28-.05,0,0,.09.13-.05.15ZM20.77,16.23h-.15v.05h.15v-.05ZM25.53,16.43v-.2h-.05v.2h.05ZM9.2,16.28l-.2.02v.18s.2,0,.2,0c.05-.14-.1-.08-.1-.13,0-.06.12.02.1-.08ZM11.3,16.28h-1.75v.05h1.75v-.05ZM14.21,16.28c-.05-.05-.15.05-.1.1s.15-.05.1-.1ZM18.39,16.28s-.03.05,0,.05.03-.05,0-.05ZM4.28,16.39s-.15-.06-.17-.06c-.09.02-.1.2-.08.27.03.11.14.02.15.03.02.02-.04.25.08.3.06-.02,0-.17.03-.2.09-.11.1.11.13.1.2-.1.07-.25.13-.4h-.2s.03.15.03.15c-.09-.04-.06-.17-.08-.19ZM20.42,16.48v-.15h-.05v.15h.05ZM25.78,16.63v-.3h-.05v.3h.05ZM3.94,16.58v-.2h-.05v.2h.05ZM6.17,16.38s-.03.05,0,.05.03-.05,0-.05ZM8.12,16.38s-.03.05,0,.05.03-.05,0-.05ZM20.22,16.38h-.1v.05h.1v-.05ZM3.21,16.43s-.03.05,0,.05.03-.05,0-.05ZM14.21,16.43h-.1v.05h.1v-.05ZM3.31,16.48s-.03.05,0,.05.03-.05,0-.05ZM12.25,16.58v-.1h-.05v.1h.05ZM23.55,16.48s-.03.05,0,.05.03-.05,0-.05ZM24.32,16.73v-.25h-.05v.25h.05ZM25.33,16.58l-.1-.1v.1s.1,0,.1,0ZM4.74,16.68s.05-.08.05-.12c-.07-.09-.04.03-.06.06,0,0-.06.03-.09.06-.02.02-.09.03,0,.05,0,.03,0,.09,0,.1,0,0-.2.07-.24.09-.13.05-.09.08.01.06.08,0,.16-.1.26-.14.2-.07.58-.16.8-.2.51-.1.89-.07,1.38.1l.24.14c-.39-.11-.81-.28-1.23-.25-.09,0-.21.09-.33.05v.4c.19-.13.39,0,.57,0,.23.01.78.06.86-.11.09,0,.42-.03.42.08s-.26.03-.25.13c.21,0,.43-.03.63.05.07-.04-.07-.1-.09-.11-.62-.4-1.25-.68-2.01-.59-.26.03-.59.19-.87.24-.06.01-.06-.04-.06-.04l.05-.03s-.03-.02-.05-.02ZM9.2,16.53l-.2.03c.06.12-.06.2.1.17l-.1.1c.25.03.14-.09.1-.23-.01-.05.12.02.1-.07ZM12.65,16.53h-.35v.05h.35v-.05ZM25.08,16.53c-.06-.03-.17.08-.15.1h.15s0-.1,0-.1ZM26.38,16.58c-.14-.02-.1.02-.1.12,0,.13,0,.25,0,.38l.1-.5ZM26.68,16.63l-.15-.05v.5c.1.02.01-.15.08-.15s-.03.17.08.15v-.45ZM2.73,16.64s-.15,0-.2.02c-.07.05-.05.15-.05.23l.12.05.15-.15.08.1.1-.25c-.21-.04-.12.06-.15.1-.04.07-.05-.09-.05-.1ZM3.01,16.63s-.03.05,0,.05.03-.05,0-.05ZM3.18,16.63h-.1v.05h.1v-.05ZM3.69,16.63h-.2c-.02.19.06.03.2.05v-.05ZM10.4,16.63h-.25v.05h.25v-.05ZM25.32,16.68s-.12-.04-.12-.04c-.02,0-.2.16-.33.09l.05.1c-.28-.04-.15.19.07.15.06,0-.02-.12.08-.1l.1.15-.05-.3.2.2c-.01-.06.02-.23,0-.25ZM27.03,16.63h-.15v.05h.15v-.05ZM3.38,16.68h-.1v.05h.1v-.05ZM8.74,16.68c-.1.04-.45-.04-.4.13.01.05.12.06.14.09.03.04-.02.14.18.08.11-.03.08-.21.08-.3ZM26.83,17.08c0-.09,0-.18,0-.28,0-.06.03-.14-.05-.12,0,.09,0,.18,0,.28,0,.06-.03.14.05.12ZM25.58,16.73c-.09-.01-.17,0-.2.1h.2s0-.1,0-.1ZM26.95,16.73s-.03.05,0,.05.03-.05,0-.05ZM3.59,16.78h-.35s0,.35,0,.35l.15-.05-.03.1h.07s.05-.3.05-.3l.1.1v-.2ZM3.79,16.78c-.22-.07-.05.35.05.25l-.05-.25ZM11.25,16.78h-1.5v.05h1.5v-.05ZM2.03,16.83h-.1v.15h.1v-.15ZM2.18,16.83h-.1v.15h.1v-.15ZM13.25,16.93v-.1h-.05v.1h.05ZM25.88,16.93s.01-.1-.03-.09c-.13.03-.16.04-.3.05-.06,0-.19-.04-.18.05.1,0,.14-.05.15.07,0,.07-.01.36,0,.38.02.02.18-.03.25.02s.07.25.2.28v-.55s.1.07.1.07l.05.28v-.4s-.25,0-.25,0v.25s-.05-.25-.05-.25l-.2.05c-.02-.08.06-.03.09-.06.02-.02,0-.09.04-.09.1-.01.25.1.37.05-.02-.14-.22-.08-.25-.11ZM9.15,16.88h-.15v.05h.15v-.05ZM14.38,16.88s-.03.05,0,.05.03-.05,0-.05ZM24.12,16.88l-.3.05.08.3c.09-.05-.06-.21-.02-.25.01-.02.08.08.13,0,0,.32.2-.02.12-.11ZM2.33,17.13c0-.21,0-.29-.1-.08l.1.08ZM3.99,17.03v-.1h-.05v.1h.05ZM20.22,16.93h-.1v.05h.1v-.05ZM1.66,16.98l-.08.08.02.02.08-.08-.02-.02ZM4.69,17.33s-.3.01-.3.03c0,.11.14.03.18.03.38,0,.4.04.38-.4l-.05.3h-.2s0-.15,0-.15v.2ZM16.41,16.98h-.1c.05.07.03.17.1.15v-.15ZM25.48,17.38c0-.09,0-.18,0-.28,0-.06.03-.14-.05-.12,0,.09,0,.18,0,.28,0,.06-.03.14.05.12ZM26.2,16.98s-.03.05,0,.05.03-.05,0-.05ZM2.18,17.03h-.15v.05h.15v-.05ZM2.83,17.03h-.1v.05h.1v-.05ZM24.95,17.03s-.03.05,0,.05.03-.05,0-.05ZM15.91,17.33v-.25c-.1-.02-.03.12-.05.15-.05.06-.29-.06-.3-.05-.12.11.29.21.35.15ZM1.83,17.23l-.1-.1v.1s.1,0,.1,0ZM10.75,17.13h-.15v.05h.15v-.05ZM2.06,17.18s-.03.05,0,.05.03-.05,0-.05ZM2.33,17.18h-.15v.05h.15v-.05ZM16.13,17.18s-.03.05,0,.05.03-.05,0-.05ZM16.28,17.18s-.03.05,0,.05.03-.05,0-.05ZM20.22,17.18h-.1v.05h.1v-.05ZM2.58,17.83s-.01.06.07.04c.22-.04.32-.15.29-.37,0-.07-.05-.07-.05-.07-.03-.07-.03-.17-.13-.2-.28-.08-.24.28-.22.47,0,.09,0,.07.05.12ZM4.46,17.23s-.03.05,0,.05.03-.05,0-.05ZM5.74,17.43l-.05-.2c0,.19-.08.36-.05.55.15.04.08-.08.1-.1.05-.05.05.09.05.1.02.03.25.02.25-.12,0-.03-.03-.07-.03-.1,0-.1.05-.21.03-.33h-.25s-.05.2-.05.2ZM6.59,17.23h-.45c.01.11-.08.32,0,.4.01.01.35.01.4-.02.07-.04.06-.36.05-.38ZM6.99,17.24c-.09.07-.13.03-.2.02-.2-.01-.06.22-.05.3,0,.09-.1.19.03.22s.58,0,.75,0c.13,0,.32-.03.45-.03.11,0,.25.06.38.03l-.05-.2c-.25.23-.08-.06-.23-.1-.09-.03-.14.13-.13.2-.25.03-.05-.04-.17-.15l-.13.15-.05-.35c-.1.02-.19-.03-.27-.03-.03,0-.1.05-.12.03-.02-.02,0-.08,0-.1-.04-.07-.05.09-.05.1-.01.01-.04-.03-.07-.03-.05,0-.08.09-.08-.06ZM15.16,17.23h-.7l.42.1c.1,0,.24.03.28-.1ZM23.92,17.28s-.14-.06-.15-.05c-.11.13.23.12.15.05ZM4.09,17.28h-.88s-.08.07-.08.1h.95v-.1ZM10.4,17.38c-.04-.14-.28-.14-.35-.02v.02s.35,0,.35,0ZM20.09,17.33s-.03.05,0,.05.03-.05,0-.05ZM23.1,17.33s-.03.05,0,.05.03-.05,0-.05ZM25.03,17.63s.05-.16.05-.17c0-.04-.1-.12-.15-.13.03.17-.15.08-.27.1-.05,0,0,.1-.05.11-.11.02-.18-.05-.27-.05v.2s-.2.05-.2.05c.21.01.39,0,.59-.09.05-.02.13-.1.14-.1.02,0,.13.14.18.09ZM26.63,17.48c-.03-.12-.18-.12-.27-.1-.03,0-.06.16-.13.18.07.04.12-.11.18-.12.05-.01.14.07.22.05ZM3.69,17.58c-.07-.19-.28-.06-.38-.06-.05,0-.11-.18-.22-.01-.02.12.1.07.18.07.14,0,.28,0,.43,0ZM4.64,17.53c-.31,0-.59-.11-.9-.05.04.29.2.06.23.06.03,0,.03.05.2.04.1,0,.2,0,.3,0,.06,0,.19.04.18-.05ZM4.89,17.63c.03-.19-.08-.22-.25-.2l.05.2h.2ZM10.4,17.43c-.09,0-.33-.03-.35.08,0,.04.07.17,0,.27l.25-.05c.03-.09-.13-.03-.1-.07.03-.05.11-.08.1-.18l.1.1v-.15ZM13.9,17.48l-.23-.03-.27.05c.05.11.23.06.25.08.02.02-.04.18.03.2.08-.14.28-.11.23-.3ZM14.76,17.48c-.21-.07-.36,0-.58,0-.08,0-.24-.1-.22.06.01.07.07.14.04.23.39.08.26-.2.3-.25,0-.01.15.06.28.05.04,0,.19-.04.18-.1ZM14.88,17.43s-.03.05,0,.05.03-.05,0-.05ZM15.11,17.43c-.21-.06-.19.14-.08.1.02,0,.09-.09.08-.1ZM15.96,17.43c-.14.02-.38-.07-.45.1h.25c0,.1.02.22.15.2l.05-.3ZM18.71,17.43c-.13-.11-.12.23-.05.15,0,0,.06-.14.05-.15ZM19.16,17.43c-.21-.03-.08.28,0,.07,0-.02,0-.05,0-.07ZM19.82,17.58l-.17-.1-.43.03c.15.15.41.05.6.08ZM23.87,17.83s.06-.19.05-.23c-.01-.14-.14-.19-.27-.17-.11.02-.31.08-.12.15.03.01.13.04.13.04.02.03,0,.13,0,.15.03.03.07-.12.1.01.02.07.09.04.1.04ZM25.33,17.68c0-.08-.02-.17.05-.23l-.02-.02-.13.18.1.08ZM11.5,17.58v-.1h-.05v.1h.05ZM11.8,17.48h-.15v.1h.15v-.1ZM12,17.48c-.05-.05-.15.05-.1.1s.15-.05.1-.1ZM12.25,17.48h-.15v.1h.15v-.1ZM12.5,17.48c-.05-.05-.15.05-.1.1s.15-.05.1-.1ZM12.75,17.48c-.05-.05-.15.05-.1.1s.15-.05.1-.1ZM13,17.48c-.05-.05-.15.05-.1.1s.15-.05.1-.1ZM13.35,17.48h-.15v.1h.15v-.1ZM20.22,17.48c-.12,0-.26-.04-.3.1.12,0,.26.04.3-.1ZM11.35,17.53h-.25c-.04.18.12.03.25.1v-.1ZM21.32,17.53s-.22-.01-.2.02c.1.16.23,0,.2-.02ZM23.4,17.53s-.03.05,0,.05.03-.05,0-.05ZM5.14,17.58h-.2c-.02.1.12.03.15.05.06.04-.21.06-.1.15,0,0,.15.02.15-.03v-.18ZM9.35,17.63c-.19.05-.44-.06-.55.15h.55s0-.15,0-.15ZM10.4,17.78v-.15h-.05v.15h.05ZM26.2,17.63s-.03.05,0,.05.03-.05,0-.05ZM3.08,17.83c.08.08.21-.15.08-.15-.03,0-.1.12-.08.15ZM3.99,17.83c.08.08.21-.15.08-.15-.03,0-.1.12-.08.15ZM4.29,17.68h-.1v.05h.1v-.05ZM4.59,17.78c-.03-.1-.11-.11-.2-.1v.1s.2,0,.2,0ZM4.79,17.68c-.05-.05-.15.05-.1.1s.15-.05.1-.1ZM6.54,17.68h-.25s0,.15,0,.15c.06-.04.3-.11.25-.15ZM8.74,17.68h-.2v.1h.2v-.1ZM20.77,17.68c-.06-.03-.17.08-.15.1h.15s0-.1,0-.1ZM22.15,17.68s-.03.05,0,.05.03-.05,0-.05ZM3.48,17.73h-.1v.05h.1v-.05ZM3.64,17.73c-.05-.05-.15.05-.1.1s.15-.05.1-.1ZM3.89,17.73h-.15v.1h.15v-.1ZM5.54,17.73h-.15v.05h.15v-.05ZM11.45,17.73c-.05-.05-.15.05-.1.1s.15-.05.1-.1ZM15.31,17.83v-.1s-.1.08-.1.08v.02s.1,0,.1,0ZM11.78,17.78s-.03.05,0,.05.03-.05,0-.05ZM14.61,15.63c.06.02.14-.02.1-.05-.01,0-.07,0-.1,0v.05ZM7.34,15.83s.04.07.05.1c-.02-.04-.04-.07-.05-.1ZM17.41,15.83h-.05s0,.07,0,.1c.02,0,.03,0,.05,0v-.1ZM7.44,16.03s.04.08.05.1c-.02-.04-.04-.07-.05-.1ZM2.88,17.43c.09.21-.12.37-.3.4v-.5c.08-.03.28.04.3.1ZM2.76,17.53s-.03.05,0,.05.03-.05,0-.05ZM17.36,15.93s-.03,0-.05,0c.01.07.04.07.05,0ZM7.09,15.2c-.07-.08-.06.06-.04.09.05.12.14.23.19.33,0-.02-.05-.24-.05-.25-.05-.06-.09-.09-.1-.17ZM5.04,16.33s.03-.03.05-.05c0,0,.02-.03.05-.05.02-.02.03-.03.05-.05.06-.05.1-.05.1-.05.01-.01.03-.03.05-.05,0,0,.02-.03.05-.05.11-.1.11-.09.2-.15,0-.01,0-.04,0-.05,0,0-.03,0-.04-.03-.07-.23-.07-.42-.06-.67-.16-.01-.47-.11-.5.12-.04.32.06.78,0,1.08.01,0,.03,0,.05,0ZM7.59,16.33c.02.19-.1,0-.1.08,0,.01.14.13.17.18.08.1.16.2.23.3-.01-.11-.22-.46-.3-.55ZM7.44,16.03s-.03-.07-.05-.1c.01.03.03.07.05.1ZM11.35,15.48h-.05v.2h.05v-.2ZM10.95,14.93v.05h.15v-.05h-.15ZM10.5,14.13v.05h.15v-.05h-.15ZM11.32,15.78s.03-.05,0-.05-.03.05,0,.05ZM10.12,13.08s.03-.05,0-.05-.03.05,0,.05ZM13.3,16.63v.05h1.75v-.05h-1.75ZM15.18,16.68s.03-.05,0-.05-.03.05,0,.05ZM13.23,16.63s.03-.05,0-.05-.03.05,0,.05ZM14.51,16.03v.05h.2v-.05h-.2ZM14.56,16.23v.05h.2v-.05h-.2ZM14.56,15.08v.05h.15v-.05h-.15ZM14.56,14.68v.05h.15v-.05h-.15ZM14.51,15.28v.05h.1v-.05h-.1ZM14.68,14.88s.03-.05,0-.05-.03.05,0,.05ZM14.68,15.53s.03-.05,0-.05-.03.05,0,.05ZM14.68,15.43s.03-.05,0-.05-.03.05,0,.05ZM14.68,15.33s.03-.05,0-.05-.03.05,0,.05ZM13.43,14.53s.03-.05,0-.05-.03.05,0,.05ZM13.58,13.98s.03-.05,0-.05-.03.05,0,.05ZM13.43,13.98s.03-.05,0-.05-.03.05,0,.05ZM14.41,10.47v-.1c-.23-.01-.18.04,0,.1ZM14.26,8.82v.05h.2v-.05h-.2ZM14.26,10.72v.05h.15v-.05h-.15ZM14.36,9.77v.05h.15v-.05h-.15ZM14.36,9.27v.05h.1v-.05h-.1ZM14.36,9.47v.05h.1v-.05h-.1ZM14.36,10.02v.05h.1v-.05h-.1ZM14.28,9.27s.03-.05,0-.05-.03.05,0,.05ZM14.38,9.92s.03-.05,0-.05-.03.05,0,.05ZM14.28,10.07s.03-.05,0-.05-.03.05,0,.05ZM14.38,10.67s.03-.05,0-.05-.03.05,0,.05ZM14.38,9.42s.03-.05,0-.05-.03.05,0,.05ZM14.56,12.83v.05h.15v-.05h-.15ZM12.63,15.83s.03-.05,0-.05-.03.05,0,.05ZM13,11.22v.05h.1v-.05h-.1ZM13.08,10.87s.03-.05,0-.05-.03.05,0,.05ZM13.08,12.17s.03-.05,0-.05-.03.05,0,.05ZM13.08,11.62s.03-.05,0-.05-.03.05,0,.05ZM15.68,9.07s.03-.05,0-.05-.03.05,0,.05ZM16.18,10.37s.03-.05,0-.05-.03.05,0,.05ZM16.26,15.03v.05h.1v-.05h-.1ZM24.98,16.78v.05h.1v-.05h-.1Z"/>
</svg>