<?xml version="1.0" encoding="UTF-8"?>
<svg id="Layer_1" xmlns="http://www.w3.org/2000/svg" viewBox="0 0 118.48 35.04">
  <defs>
    <style>
      .cls-1 {
        fill: #231f20;
      }
    </style>
  </defs>
  <path class="cls-1" d="M23.47,19.85c-1.63,0-2.96,1.33-2.96,2.96s1.33,2.96,2.96,2.96,2.96-1.33,2.96-2.96-1.33-2.96-2.96-2.96M16.7,19.85c-1.63,0-2.96,1.33-2.96,2.96s1.33,2.96,2.96,2.96,2.96-1.33,2.96-2.96-1.33-2.96-2.96-2.96M20.1,25.68c-1.63,0-2.95,1.32-2.95,2.95s1.32,2.95,2.95,2.95,2.96-1.33,2.96-2.95-1.33-2.95-2.96-2.95M26.87,14c-1.63,0-2.95,1.33-2.95,2.97s1.33,2.96,2.95,2.96,2.96-1.33,2.96-2.96-1.33-2.97-2.96-2.97M37.17,9.8s-.03,0-.05-.02c-.59-.22-1.27-.36-2.08-.43-.15-.02-.28-.11-.33-.26-.02-.05-.03-.1-.03-.14,0-.1.04-.2.11-.27.48-.52.79-1.16.92-1.85,0,0,.01-.09.02-.13,0-.11-.04-1.72-1.03-2.61-.46-.4-1.05-.58-1.74-.51-.07,0-1.71.12-1.87,1.62,0,0,0,.06,0,.1.05.31.18.55.41.71.31.23.73.3,1.24.19,0,0,.04-.01.05-.01.27-.07.84-.38,1.04-1.03.05-.15.18-.26.34-.27.16-.02.31.06.39.2.32.55.41,1.25.43,1.53,0,.04,0,.08,0,.12-.47,2.05-2.52,2.62-3.26,2.66l-.1.02s-.1.03-.13.03c-1.73.08-2.81-.63-3.13-.87l-2.65-2.19s-.53-.44-.55-.45c-1.54-1.2-4.07-.25-4.57-.05-1.2.44-2.35.95-3.43,1.5-.11.06-.25.06-.36,0-.11-.05-.19-.16-.22-.28-.25-1.26-.95-3.61-2.83-5.27C12.15.44,10.03-.16,7.46.04c-.2.02-.35.17-.36.36l-.15,3.37c0,.11-.06.22-.15.3-.09.07-.21.1-.32.08-1.05-.18-3.04-.44-4.65-.04-.16.04-.29.2-.29.36v.08c.09,1.98.31,3.58.64,4.52.02.04.02.09.02.13,0,.07-.02.14-.05.2-.61,1.09-2.17,4.18-2.17,7.5,0,1.17.2,2.37.7,3.52.03.06.08.14.19.19.04.03,4.66,2.29,10.53-1.16.12-.08.28-.08.41,0,.54.33,1.02.49,1.51.49,1.63,0,2.95-1.33,2.95-2.96,0-1.4-.99-2.57-2.41-2.85h0c-.37-.05-.62-.07-.8-.06-.22.01-.29.05-.6.11-.03,0-.05,0-.08.01,0,0-.01.01-.02.01-.77.27-1.38.82-1.71,1.55-.01.03-.03.04-.04.06,0,.03,0,.06-.02.09-.15.38-.22.73-.22,1.07,0,.47.15.94.45,1.47.06.09.07.21.04.31-.03.1-.1.19-.19.24-4.53,2.5-8.18,1.44-9.19,1.06-.11-.04-.19-.13-.23-.23-1.78-4.63,1.71-10.31,1.75-10.37h0c.07-.1.08-.24.02-.35-.47-.96-.64-3.1-.69-3.98-.01-.21.14-.39.35-.42,1.88-.24,4.08.26,4.5.36.12.03.24,0,.32-.06.1-.07.15-.18.16-.29l.16-3.57c.01-.21.18-.38.4-.38,2.04-.03,3.73.53,5.02,1.65,1.96,1.71,2.52,4.29,2.68,5.32.02.16-.06.32-.2.41l-.31.18-1.53.89c-.13.08-.31.07-.44-.02-.13-.09-.19-.25-.16-.4.2-.97.18-1.9-.06-2.75-.22-.79-.63-1.51-1.21-2.15-.11-.03-.2-.04-.24-.02-.17.06-.31.13-.37.23-.03.05-.01.16.04.27.51.56.87,1.18,1.06,1.85.49,1.74-.22,3.47-.54,4.14-.07.14-.22.23-.37.22-.16,0-.3-.1-.36-.25-.32-.79-1.07-2.24-2.46-3.01-1.14-.64-2.46-.71-3.94-.21-.09.03-.16.09-.2.17-.04.09-.05.19-.01.3.03.09.09.17.18.21.09.05.19.05.29.02,1.27-.42,2.39-.37,3.32.16,1.32.73,2,2.21,2.29,3.03.06.17,0,.36-.15.46l-.59.43c-.12.09-.28.11-.41.05-1.14-.51-4.1-1.33-7.02,2.09-.13.16-.12.4.04.53.16.14.39.12.53-.03,2.1-2.48,4.19-2.46,5.25-2.23.15.03.27.15.3.3.03.15-.02.31-.14.41-3.39,2.7-5.48,4.94-5.5,4.97-.07.07-.1.16-.1.26,0,.1.04.19.12.27.07.07.17.11.27.1.1,0,.19-.04.25-.1.01-.01,2.05-2.19,5.37-4.82.12-.1.3-.11.44-.04.14.08.22.23.2.39-.13,1.15-.79,2.8-3.21,4.1-.09.05-.16.13-.18.22-.03.09-.02.19.04.29.04.09.12.15.21.17.1.03.2.02.29-.03,1.56-.83,2.63-1.91,3.18-3.2.01-.03.03-.05.05-.07,0-.03,0-.06.02-.09.43-1.1.38-2.08.32-2.56-.02-.15.03-.29.15-.38l.5-.37c.16-.12.4-.1.54.05.29.31.72.81,1.14,1.41,0,.02.01.04.02.05.05.05.11.1.17.11.15.05.37-.02.49-.12.08-.06.07-.17.04-.28-.4-.63-.81-1.14-1.11-1.48-.1-.11-.13-.26-.08-.4.05-.14.17-.24.31-.27.59-.1,2.65-.32,4.33.92.38.27.72.62,1.03,1.04.32.16.68-.05.65-.38-.36-.51-.78-.94-1.24-1.28-.74-.54-1.6-.89-2.56-1.04-.17-.03-.31-.15-.34-.32-.03-.17.04-.33.19-.42l1.83-1.05c.06-.04.13-.05.19-.05.54,0,3.3.13,4.56,1.93.4.57.6,1.29.6,2.14,0,.36-.04.75-.11,1.17-.02.12-.09.21-.19.27-.1.06-.22.07-.33.03-.55-.16-1.06-.15-1.48-.07h-.02c-.36.07-.63.18-.77.25-.28.16-.38.25-.54.38-.7.59-1.08,1.37-1.08,2.22,0,1.63,1.33,2.96,2.96,2.96s2.96-1.33,2.96-2.96c0-.71-.28-1.42-.8-1.98-.09-.1-.12-.24-.09-.37.46-1.84.29-3.34-.49-4.47-.62-.89-1.6-1.53-2.9-1.91-.16-.05-.28-.19-.29-.36-.01-.17.08-.32.23-.39.82-.38,1.51-.66,2.14-.88l.05-.02c.1-.04,2.51-1.05,3.81-.04,0,0,3.18,2.63,3.2,2.64.02.01,1.44,1.2,3.78,1.02,0,0,.07-.01.05-.01.03,0,2.99-.49,5.14.3,0,0,.12.03.11.03.24.05,2.31.59,2.22,3.27,0,.02,0,.04,0,.06-.05.25-.35,1.51-1.65,1.9-.15.04-.3,0-.4-.1-.07-.07-.11-.17-.11-.28,0-.04,0-.08.02-.12,0,0,.08-.25.12-.37-.06-.6-.6-.96-1.08-1.05,0,0-.06,0-.07,0-.41-.02-.74.09-.99.33-.39.35-.46.85-.48,1.06,0,.03,0,.06,0,.07.19,1.29,1.53,1.31,1.69,1.31.02,0,.03,0,.04,0,2.49.26,3.48-1.63,3.65-2.67,0,0,0-.04.01-.07,0-.07,0-.15,0-.22,0-2.53-1.74-3.6-2.79-3.83"/>
  <path class="cls-1" d="M23.47,19.85c-1.63,0-2.96,1.33-2.96,2.96s1.33,2.96,2.96,2.96,2.96-1.33,2.96-2.96-1.33-2.96-2.96-2.96M16.7,19.85c-1.63,0-2.96,1.33-2.96,2.96s1.33,2.96,2.96,2.96,2.96-1.33,2.96-2.96-1.33-2.96-2.96-2.96M20.1,25.68c-1.63,0-2.95,1.32-2.95,2.95s1.32,2.95,2.95,2.95,2.96-1.33,2.96-2.95-1.33-2.95-2.96-2.95M26.87,14c-1.63,0-2.95,1.33-2.95,2.97s1.33,2.96,2.95,2.96,2.96-1.33,2.96-2.96-1.33-2.97-2.96-2.97M37.17,9.8s-.03,0-.05-.02c-.59-.22-1.27-.36-2.08-.43-.15-.02-.28-.11-.33-.26-.02-.05-.03-.1-.03-.14,0-.1.04-.2.11-.27.48-.52.79-1.16.92-1.85,0,0,.01-.09.02-.13,0-.11-.04-1.72-1.03-2.61-.46-.4-1.05-.58-1.74-.51-.07,0-1.71.12-1.87,1.62,0,0,0,.06,0,.1.05.31.18.55.41.71.31.23.73.3,1.24.19,0,0,.04-.01.05-.01.27-.07.84-.38,1.04-1.03.05-.15.18-.26.34-.27.16-.02.31.06.39.2.32.55.41,1.25.43,1.53,0,.04,0,.08,0,.12-.47,2.05-2.52,2.62-3.26,2.66l-.1.02s-.1.03-.13.03c-1.73.08-2.81-.63-3.13-.87l-2.65-2.19s-.53-.44-.55-.45c-1.54-1.2-4.07-.25-4.57-.05-1.2.44-2.35.95-3.43,1.5-.11.06-.25.06-.36,0-.11-.05-.19-.16-.22-.28-.25-1.26-.95-3.61-2.83-5.27C12.15.44,10.03-.16,7.46.04c-.2.02-.35.17-.36.36l-.15,3.37c0,.11-.06.22-.15.3-.09.07-.21.1-.32.08-1.05-.18-3.04-.44-4.65-.04-.16.04-.29.2-.29.36v.08c.09,1.98.31,3.58.64,4.52.02.04.02.09.02.13,0,.07-.02.14-.05.2-.61,1.09-2.17,4.18-2.17,7.5,0,1.17.2,2.37.7,3.52.03.06.08.14.19.19.04.03,4.66,2.29,10.53-1.16.12-.08.28-.08.41,0,.54.33,1.02.49,1.51.49,1.63,0,2.95-1.33,2.95-2.96,0-1.4-.99-2.57-2.41-2.85h0c-.37-.05-.62-.07-.8-.06-.22.01-.29.05-.6.11-.03,0-.05,0-.08.01,0,0-.01.01-.02.01-.77.27-1.38.82-1.71,1.55-.01.03-.03.04-.04.06,0,.03,0,.06-.02.09-.15.38-.22.73-.22,1.07,0,.47.15.94.45,1.47.06.09.07.21.04.31-.03.1-.1.19-.19.24-4.53,2.5-8.18,1.44-9.19,1.06-.11-.04-.19-.13-.23-.23-1.78-4.63,1.71-10.31,1.75-10.37h0c.07-.1.08-.24.02-.35-.47-.96-.64-3.1-.69-3.98-.01-.21.14-.39.35-.42,1.88-.24,4.08.26,4.5.36.12.03.24,0,.32-.06.1-.07.15-.18.16-.29l.16-3.57c.01-.21.18-.38.4-.38,2.04-.03,3.73.53,5.02,1.65,1.96,1.71,2.52,4.29,2.68,5.32.02.16-.06.32-.2.41l-.31.18-1.53.89c-.13.08-.31.07-.44-.02-.13-.09-.19-.25-.16-.4.2-.97.18-1.9-.06-2.75-.22-.79-.63-1.51-1.21-2.15-.11-.03-.2-.04-.24-.02-.17.06-.31.13-.37.23-.03.05-.01.16.04.27.51.56.87,1.18,1.06,1.85.49,1.74-.22,3.47-.54,4.14-.07.14-.22.23-.37.22-.16,0-.3-.1-.36-.25-.32-.79-1.07-2.24-2.46-3.01-1.14-.64-2.46-.71-3.94-.21-.09.03-.16.09-.2.17-.04.09-.05.19-.01.3.03.09.09.17.18.21.09.05.19.05.29.02,1.27-.42,2.39-.37,3.32.16,1.32.73,2,2.21,2.29,3.03.06.17,0,.36-.15.46l-.59.43c-.12.09-.28.11-.41.05-1.14-.51-4.1-1.33-7.02,2.09-.13.16-.12.4.04.53.16.14.39.12.53-.03,2.1-2.48,4.19-2.46,5.25-2.23.15.03.27.15.3.3.03.15-.02.31-.14.41-3.39,2.7-5.48,4.94-5.5,4.97-.07.07-.1.16-.1.26,0,.1.04.19.12.27.07.07.17.11.27.1.1,0,.19-.04.25-.1.01-.01,2.05-2.19,5.37-4.82.12-.1.3-.11.44-.04.14.08.22.23.2.39-.13,1.15-.79,2.8-3.21,4.1-.09.05-.16.13-.18.22-.03.09-.02.19.04.29.04.09.12.15.21.17.1.03.2.02.29-.03,1.56-.83,2.63-1.91,3.18-3.2.01-.03.03-.05.05-.07,0-.03,0-.06.02-.09.43-1.1.38-2.08.32-2.56-.02-.15.03-.29.15-.38l.5-.37c.16-.12.4-.1.54.05.29.31.72.81,1.14,1.41,0,.02.01.04.02.05.05.05.11.1.17.11.15.05.37-.02.49-.12.08-.06.07-.17.04-.28-.4-.63-.81-1.14-1.11-1.48-.1-.11-.13-.26-.08-.4.05-.14.17-.24.31-.27.59-.1,2.65-.32,4.33.92.38.27.72.62,1.03,1.04.32.16.68-.05.65-.38-.36-.51-.78-.94-1.24-1.28-.74-.54-1.6-.89-2.56-1.04-.17-.03-.31-.15-.34-.32-.03-.17.04-.33.19-.42l1.83-1.05c.06-.04.13-.05.19-.05.54,0,3.3.13,4.56,1.93.4.57.6,1.29.6,2.14,0,.36-.04.75-.11,1.17-.02.12-.09.21-.19.27-.1.06-.22.07-.33.03-.55-.16-1.06-.15-1.48-.07h-.02c-.36.07-.63.18-.77.25-.28.16-.38.25-.54.38-.7.59-1.08,1.37-1.08,2.22,0,1.63,1.33,2.96,2.96,2.96s2.96-1.33,2.96-2.96c0-.71-.28-1.42-.8-1.98-.09-.1-.12-.24-.09-.37.46-1.84.29-3.34-.49-4.47-.62-.89-1.6-1.53-2.9-1.91-.16-.05-.28-.19-.29-.36-.01-.17.08-.32.23-.39.82-.38,1.51-.66,2.14-.88l.05-.02c.1-.04,2.51-1.05,3.81-.04,0,0,3.18,2.63,3.2,2.64.02.01,1.44,1.2,3.78,1.02,0,0,.07-.01.05-.01.03,0,2.99-.49,5.14.3,0,0,.12.03.11.03.24.05,2.31.59,2.22,3.27,0,.02,0,.04,0,.06-.05.25-.35,1.51-1.65,1.9-.15.04-.3,0-.4-.1-.07-.07-.11-.17-.11-.28,0-.04,0-.08.02-.12,0,0,.08-.25.12-.37-.06-.6-.6-.96-1.08-1.05,0,0-.06,0-.07,0-.41-.02-.74.09-.99.33-.39.35-.46.85-.48,1.06,0,.03,0,.06,0,.07.19,1.29,1.53,1.31,1.69,1.31.02,0,.03,0,.04,0,2.49.26,3.48-1.63,3.65-2.67,0,0,0-.04.01-.07,0-.07,0-.15,0-.22,0-2.53-1.74-3.6-2.79-3.83"/>
  <path class="cls-1" d="M23.47,19.85c-1.63,0-2.96,1.33-2.96,2.96s1.33,2.96,2.96,2.96,2.96-1.33,2.96-2.96-1.33-2.96-2.96-2.96M16.7,19.85c-1.63,0-2.96,1.33-2.96,2.96s1.33,2.96,2.96,2.96,2.96-1.33,2.96-2.96-1.33-2.96-2.96-2.96M20.1,25.68c-1.63,0-2.95,1.32-2.95,2.95s1.32,2.95,2.95,2.95,2.96-1.33,2.96-2.95-1.33-2.95-2.96-2.95M26.87,14c-1.63,0-2.95,1.33-2.95,2.97s1.33,2.96,2.95,2.96,2.96-1.33,2.96-2.96-1.33-2.97-2.96-2.97M37.17,9.8s-.03,0-.05-.02c-.59-.22-1.27-.36-2.08-.43-.15-.02-.28-.11-.33-.26-.02-.05-.03-.1-.03-.14,0-.1.04-.2.11-.27.48-.52.79-1.16.92-1.85,0,0,.01-.09.02-.13,0-.11-.04-1.72-1.03-2.61-.46-.4-1.05-.58-1.74-.51-.07,0-1.71.12-1.87,1.62,0,0,0,.06,0,.1.05.31.18.55.41.71.31.23.73.3,1.24.19,0,0,.04-.01.05-.01.27-.07.84-.38,1.04-1.03.05-.15.18-.26.34-.27.16-.02.31.06.39.2.32.55.41,1.25.43,1.53,0,.04,0,.08,0,.12-.47,2.05-2.52,2.62-3.26,2.66l-.1.02s-.1.03-.13.03c-1.73.08-2.81-.63-3.13-.87l-2.65-2.19s-.53-.44-.55-.45c-1.54-1.2-4.07-.25-4.57-.05-1.2.44-2.35.95-3.43,1.5-.11.06-.25.06-.36,0-.11-.05-.19-.16-.22-.28-.25-1.26-.95-3.61-2.83-5.27C12.15.44,10.03-.16,7.46.04c-.2.02-.35.17-.36.36l-.15,3.37c0,.11-.06.22-.15.3-.09.07-.21.1-.32.08-1.05-.18-3.04-.44-4.65-.04-.16.04-.29.2-.29.36v.08c.09,1.98.31,3.58.64,4.52.02.04.02.09.02.13,0,.07-.02.14-.05.2-.61,1.09-2.17,4.18-2.17,7.5,0,1.17.2,2.37.7,3.52.03.06.08.14.19.19.04.03,4.66,2.29,10.53-1.16.12-.08.28-.08.41,0,.54.33,1.02.49,1.51.49,1.63,0,2.95-1.33,2.95-2.96,0-1.4-.99-2.57-2.41-2.85h0c-.37-.05-.62-.07-.8-.06-.22.01-.29.05-.6.11-.03,0-.05,0-.08.01,0,0-.01.01-.02.01-.77.27-1.38.82-1.71,1.55-.01.03-.03.04-.04.06,0,.03,0,.06-.02.09-.15.38-.22.73-.22,1.07,0,.47.15.94.45,1.47.06.09.07.21.04.31-.03.1-.1.19-.19.24-4.53,2.5-8.18,1.44-9.19,1.06-.11-.04-.19-.13-.23-.23-1.78-4.63,1.71-10.31,1.75-10.37h0c.07-.1.08-.24.02-.35-.47-.96-.64-3.1-.69-3.98-.01-.21.14-.39.35-.42,1.88-.24,4.08.26,4.5.36.12.03.24,0,.32-.06.1-.07.15-.18.16-.29l.16-3.57c.01-.21.18-.38.4-.38,2.04-.03,3.73.53,5.02,1.65,1.96,1.71,2.52,4.29,2.68,5.32.02.16-.06.32-.2.41l-.31.18-1.53.89c-.13.08-.31.07-.44-.02-.13-.09-.19-.25-.16-.4.2-.97.18-1.9-.06-2.75-.22-.79-.63-1.51-1.21-2.15-.11-.03-.2-.04-.24-.02-.17.06-.31.13-.37.23-.03.05-.01.16.04.27.51.56.87,1.18,1.06,1.85.49,1.74-.22,3.47-.54,4.14-.07.14-.22.23-.37.22-.16,0-.3-.1-.36-.25-.32-.79-1.07-2.24-2.46-3.01-1.14-.64-2.46-.71-3.94-.21-.09.03-.16.09-.2.17-.04.09-.05.19-.01.3.03.09.09.17.18.21.09.05.19.05.29.02,1.27-.42,2.39-.37,3.32.16,1.32.73,2,2.21,2.29,3.03.06.17,0,.36-.15.46l-.59.43c-.12.09-.28.11-.41.05-1.14-.51-4.1-1.33-7.02,2.09-.13.16-.12.4.04.53.16.14.39.12.53-.03,2.1-2.48,4.19-2.46,5.25-2.23.15.03.27.15.3.3.03.15-.02.31-.14.41-3.39,2.7-5.48,4.94-5.5,4.97-.07.07-.1.16-.1.26,0,.1.04.19.12.27.07.07.17.11.27.1.1,0,.19-.04.25-.1.01-.01,2.05-2.19,5.37-4.82.12-.1.3-.11.44-.04.14.08.22.23.2.39-.13,1.15-.79,2.8-3.21,4.1-.09.05-.16.13-.18.22-.03.09-.02.19.04.29.04.09.12.15.21.17.1.03.2.02.29-.03,1.56-.83,2.63-1.91,3.18-3.2.01-.03.03-.05.05-.07,0-.03,0-.06.02-.09.43-1.1.38-2.08.32-2.56-.02-.15.03-.29.15-.38l.5-.37c.16-.12.4-.1.54.05.29.31.72.81,1.14,1.41,0,.02.01.04.02.05.05.05.11.1.17.11.15.05.37-.02.49-.12.08-.06.07-.17.04-.28-.4-.63-.81-1.14-1.11-1.48-.1-.11-.13-.26-.08-.4.05-.14.17-.24.31-.27.59-.1,2.65-.32,4.33.92.38.27.72.62,1.03,1.04.32.16.68-.05.65-.38-.36-.51-.78-.94-1.24-1.28-.74-.54-1.6-.89-2.56-1.04-.17-.03-.31-.15-.34-.32-.03-.17.04-.33.19-.42l1.83-1.05c.06-.04.13-.05.19-.05.54,0,3.3.13,4.56,1.93.4.57.6,1.29.6,2.14,0,.36-.04.75-.11,1.17-.02.12-.09.21-.19.27-.1.06-.22.07-.33.03-.55-.16-1.06-.15-1.48-.07h-.02c-.36.07-.63.18-.77.25-.28.16-.38.25-.54.38-.7.59-1.08,1.37-1.08,2.22,0,1.63,1.33,2.96,2.96,2.96s2.96-1.33,2.96-2.96c0-.71-.28-1.42-.8-1.98-.09-.1-.12-.24-.09-.37.46-1.84.29-3.34-.49-4.47-.62-.89-1.6-1.53-2.9-1.91-.16-.05-.28-.19-.29-.36-.01-.17.08-.32.23-.39.82-.38,1.51-.66,2.14-.88l.05-.02c.1-.04,2.51-1.05,3.81-.04,0,0,3.18,2.63,3.2,2.64.02.01,1.44,1.2,3.78,1.02,0,0,.07-.01.05-.01.03,0,2.99-.49,5.14.3,0,0,.12.03.11.03.24.05,2.31.59,2.22,3.27,0,.02,0,.04,0,.06-.05.25-.35,1.51-1.65,1.9-.15.04-.3,0-.4-.1-.07-.07-.11-.17-.11-.28,0-.04,0-.08.02-.12,0,0,.08-.25.12-.37-.06-.6-.6-.96-1.08-1.05,0,0-.06,0-.07,0-.41-.02-.74.09-.99.33-.39.35-.46.85-.48,1.06,0,.03,0,.06,0,.07.19,1.29,1.53,1.31,1.69,1.31.02,0,.03,0,.04,0,2.49.26,3.48-1.63,3.65-2.67,0,0,0-.04.01-.07,0-.07,0-.15,0-.22,0-2.53-1.74-3.6-2.79-3.83"/>
  <path class="cls-1" d="M29.39,25.66c0-3.42,2.51-5.93,6.07-5.93,2.84,0,5.04,1.6,5.79,4.01h-3.1c-.54-.87-1.48-1.39-2.68-1.39-1.93,0-3.21,1.39-3.21,3.31s1.27,3.31,3.21,3.31c1.43,0,2.44-.58,2.96-1.69h-3.66v-2.27h6.75v1.24c-.28,3.1-2.7,5.34-6.05,5.34-3.56,0-6.07-2.51-6.07-5.93"/>
  <path class="cls-1" d="M42.45,26.46c0-2.69,1.57-3.94,3.87-3.94s3.85,1.24,3.87,3.96v.05h-2.61v-.07c0-1.15-.52-1.5-1.26-1.5s-1.25.35-1.25,1.5v4.9h-2.61v-4.9Z"/>
  <path class="cls-1" d="M51.13,27.15c0-2.77,1.92-4.64,4.65-4.64s4.58,1.8,4.58,4.62v4.22h-2.41v-1.43c-.45,1.06-1.43,1.66-2.67,1.66-1.92,0-4.17-1.43-4.17-4.43M57.76,27.05c0-1.24-.8-2.09-1.99-2.09s-1.99.85-1.99,2.09.8,2.09,1.99,2.09,1.99-.85,1.99-2.09"/>
  <path class="cls-1" d="M61.32,27.14c0-2.89,1.95-4.62,4.58-4.62s4.65,1.87,4.65,4.64c0,3-2.23,4.43-4.18,4.43-1.03,0-1.9-.4-2.44-1.17v4.62h-2.61v-7.9ZM67.91,27.05c0-1.24-.8-2.09-1.99-2.09s-1.99.85-1.99,2.09.8,2.09,1.99,2.09,1.99-.85,1.99-2.09"/>
  <path class="cls-1" d="M71.5,27.05c0-2.62,1.92-4.53,4.64-4.53s4.58,1.92,4.58,4.53v.73h-6.5c.21,1.01.98,1.46,1.92,1.46.75,0,1.31-.16,1.64-.63h2.7c-.56,1.78-2.2,2.96-4.34,2.96-2.72,0-4.64-1.92-4.64-4.53M78.04,26.13c-.3-.89-.99-1.27-1.9-1.27s-1.6.4-1.86,1.27h3.76Z"/>
  <polygon class="cls-1" points="84.46 22.57 81.36 22.57 81.36 19.95 90.4 19.95 90.4 22.57 87.28 22.57 87.28 31.36 84.46 31.36 84.46 22.57"/>
  <path class="cls-1" d="M90.4,26.46c0-2.69,1.57-3.94,3.87-3.94s3.85,1.24,3.87,3.96v.05h-2.61v-.07c0-1.15-.52-1.5-1.26-1.5s-1.26.35-1.26,1.5v4.9h-2.61v-4.9Z"/>
  <path class="cls-1" d="M99.09,27.05c0-2.62,1.92-4.53,4.64-4.53s4.58,1.92,4.58,4.53v.73h-6.5c.21,1.01.98,1.46,1.92,1.46.75,0,1.31-.16,1.64-.63h2.7c-.56,1.78-2.2,2.96-4.34,2.96-2.72,0-4.64-1.92-4.64-4.53M105.62,26.13c-.3-.89-.99-1.27-1.9-1.27s-1.6.4-1.86,1.27h3.76Z"/>
  <path class="cls-1" d="M109.25,27.05c0-2.62,1.92-4.53,4.64-4.53s4.58,1.92,4.58,4.53v.73h-6.5c.21,1.01.98,1.46,1.92,1.46.75,0,1.31-.16,1.64-.63h2.7c-.56,1.78-2.2,2.96-4.34,2.96-2.72,0-4.64-1.92-4.64-4.53M115.79,26.13c-.3-.89-.99-1.27-1.9-1.27s-1.6.4-1.86,1.27h3.76Z"/>
</svg>